<svg width="58" height="58" viewBox="0 0 58 58" fill="none" xmlns="http://www.w3.org/2000/svg">
<path d="M43.0333 30.3989C47.1264 32.3206 48.3976 37.0684 45.7295 40.4694L41.8996 45.3512C37.7455 50.646 41.9337 57.9724 49.1146 57.9724C55.1442 57.9724 59.4068 52.6387 57.5123 47.4642L42.4274 6.26281C41.0587 2.52431 37.193 0 32.8365 0C29.0725 0 25.6207 1.89162 23.8797 4.90832L1.17778 44.2461C0.404059 45.5868 9.57183e-06 47.0765 1.96235e-10 48.5888C-6.01346e-05 58.0891 13.8208 61.5803 19.2689 53.4563L33.0317 32.9342C35.1068 29.84 39.4811 28.7311 43.0333 30.3989Z" fill="white"/>
</svg>
