<svg width="31" height="33" viewBox="0 0 31 33" fill="none" xmlns="http://www.w3.org/2000/svg">
<path d="M22.6729 17.2602C24.8294 18.3514 25.4992 21.0471 24.0935 22.9782L22.0756 25.75C19.8869 28.7563 22.0936 32.9162 25.877 32.9162C29.0538 32.9162 31.2996 29.8877 30.3014 26.9497L22.3537 3.55596C21.6325 1.43328 19.5958 0 17.3005 0C15.3174 0 13.4988 1.07405 12.5815 2.7869L0.620536 25.1225C0.212886 25.8837 5.0431e-06 26.7296 1.0339e-10 27.5883C-3.1683e-05 32.9825 7.28173 34.9647 10.1522 30.352L17.4034 18.6997C18.4967 16.9429 20.8013 16.3133 22.6729 17.2602Z" fill="black"/>
</svg>
