<svg width="103" height="33" viewBox="0 0 103 33" fill="none" xmlns="http://www.w3.org/2000/svg">
<g clip-path="url(#clip0_236_263)">
<path d="M22.6729 17.2602C24.8294 18.3514 25.4992 21.0471 24.0935 22.9782L22.0756 25.75C19.8869 28.7563 22.0936 32.9162 25.877 32.9162C29.0538 32.9162 31.2996 29.8877 30.3014 26.9497L22.3537 3.55596C21.6325 1.43328 19.5958 0 17.3005 0C15.3174 0 13.4988 1.07405 12.5815 2.7869L0.620537 25.1225C0.212886 25.8837 5.0431e-06 26.7296 1.0339e-10 27.5883C-3.1683e-05 32.9825 7.28173 34.9647 10.1522 30.352L17.4034 18.6997C18.4967 16.9429 20.8013 16.3133 22.6729 17.2602Z" fill="white"/>
</g>
<path d="M44.6316 32V24.08C44.6316 23.59 44.6316 23.2 44.6316 22.91C44.6316 22.62 44.6316 22.335 44.6316 22.055C44.6316 21.165 44.4716 20.39 44.1516 19.73C43.8416 19.06 43.3616 18.54 42.7116 18.17C42.0616 17.79 41.2266 17.6 40.2066 17.6C39.3066 17.6 38.4616 17.825 37.6716 18.275C36.8816 18.715 36.2416 19.315 35.7516 20.075C35.2716 20.835 35.0316 21.69 35.0316 22.64L33.9066 22.22C33.9066 21.01 34.2166 19.925 34.8366 18.965C35.4666 18.005 36.2866 17.245 37.2966 16.685C38.3166 16.125 39.3966 15.845 40.5366 15.845C41.7466 15.845 42.7966 16.075 43.6866 16.535C44.5766 16.985 45.2616 17.64 45.7416 18.5C46.2316 19.35 46.4766 20.385 46.4766 21.605C46.4766 22.025 46.4766 22.475 46.4766 22.955C46.4766 23.435 46.4766 23.87 46.4766 24.26V32H44.6316ZM33.1716 32V16.07H35.0316V32H33.1716ZM51.5585 32V16.07H53.3885V32H51.5585ZM52.4885 12.05C52.0985 12.05 51.7635 11.94 51.4835 11.72C51.2035 11.49 51.0635 11.185 51.0635 10.805C51.0635 10.435 51.2035 10.14 51.4835 9.92C51.7635 9.69 52.0985 9.575 52.4885 9.575C52.8685 9.575 53.1985 9.69 53.4785 9.92C53.7585 10.14 53.8985 10.435 53.8985 10.805C53.8985 11.185 53.7585 11.49 53.4785 11.72C53.1985 11.94 52.8685 12.05 52.4885 12.05ZM58.6306 32V8.555H60.4006V23.24L59.8756 23.015L68.1406 16.07H70.5556L62.8156 22.715L63.2656 21.725L70.6906 32H68.6656L62.0206 22.73L62.5006 23L60.1006 25.025L60.4006 24.095V32H58.6306ZM73.5804 24.815V23.15H86.4804L86.1204 23.66C86.1204 23.6 86.1204 23.55 86.1204 23.51C86.1204 23.46 86.1204 23.41 86.1204 23.36C86.1204 22.33 85.9004 21.37 85.4604 20.48C85.0204 19.59 84.3804 18.875 83.5404 18.335C82.7104 17.795 81.6954 17.525 80.4954 17.525C79.2754 17.525 78.2004 17.805 77.2704 18.365C76.3404 18.915 75.6154 19.68 75.0954 20.66C74.5754 21.63 74.3154 22.76 74.3154 24.05C74.3154 25.35 74.5704 26.495 75.0804 27.485C75.6004 28.465 76.3254 29.23 77.2554 29.78C78.1854 30.32 79.2704 30.59 80.5104 30.59C81.4204 30.59 82.2104 30.48 82.8804 30.26C83.5604 30.03 84.1204 29.73 84.5604 29.36C85.0104 28.99 85.3504 28.6 85.5804 28.19C85.8204 27.77 85.9604 27.375 86.0004 27.005H87.8454C87.8054 27.595 87.6154 28.2 87.2754 28.82C86.9454 29.43 86.4704 30 85.8504 30.53C85.2404 31.06 84.4804 31.49 83.5704 31.82C82.6704 32.14 81.6304 32.3 80.4504 32.3C78.9104 32.3 77.5404 31.95 76.3404 31.25C75.1504 30.55 74.2104 29.585 73.5204 28.355C72.8404 27.115 72.5004 25.69 72.5004 24.08C72.5004 22.46 72.8454 21.035 73.5354 19.805C74.2254 18.565 75.1704 17.595 76.3704 16.895C77.5704 16.195 78.9354 15.845 80.4654 15.845C82.0254 15.845 83.3754 16.2 84.5154 16.91C85.6554 17.62 86.5354 18.585 87.1554 19.805C87.7754 21.015 88.0854 22.375 88.0854 23.885C88.0854 24.015 88.0804 24.18 88.0704 24.38C88.0704 24.58 88.0654 24.725 88.0554 24.815H73.5804ZM97.6676 32.24C97.2176 32.24 96.7776 32.185 96.3476 32.075C95.9276 31.965 95.5476 31.77 95.2076 31.49C94.8776 31.2 94.6176 30.805 94.4276 30.305C94.2376 29.805 94.1426 29.17 94.1426 28.4C94.1426 28.19 94.1426 27.975 94.1426 27.755C94.1426 27.525 94.1426 27.285 94.1426 27.035V17.705H90.3026V16.07H93.0626C93.3226 16.07 93.5276 16.06 93.6776 16.04C93.8276 16.02 93.9326 15.97 93.9926 15.89C94.0626 15.81 94.1026 15.685 94.1126 15.515C94.1326 15.345 94.1426 15.11 94.1426 14.81V10.925H96.0026V16.07H101.103V17.705H96.0026V26.42C96.0026 26.66 96.0026 26.89 96.0026 27.11C96.0026 27.33 96.0026 27.535 96.0026 27.725C96.0026 28.625 96.1326 29.33 96.3926 29.84C96.6626 30.35 97.1676 30.605 97.9076 30.605C98.1876 30.605 98.4626 30.58 98.7326 30.53C99.0026 30.48 99.2076 30.425 99.3476 30.365V31.985C99.1776 32.055 98.9426 32.115 98.6426 32.165C98.3426 32.215 98.0176 32.24 97.6676 32.24Z" fill="white"/>
<defs>
<clipPath id="clip0_236_263">
<rect width="30.6216" height="33" fill="white"/>
</clipPath>
</defs>
</svg>
