<svg width="89" height="49" viewBox="0 0 89 49" fill="none" xmlns="http://www.w3.org/2000/svg">
<path d="M32.2971 1.33754C34.1149 2.46872 35.0452 3.8011 35.7435 5.80305C35.8 5.96068 35.8565 6.11831 35.9147 6.28072C36.0669 6.70591 36.2176 7.13157 36.3676 7.55749C36.5261 8.00612 36.6865 8.45405 36.8469 8.90202C37.0736 9.536 37.2998 10.1702 37.5254 10.8046C37.9965 12.1296 38.4768 13.4511 38.9597 14.7719C39.7886 17.0402 40.6053 19.3129 41.4191 21.5867C42.2897 24.019 43.1637 26.45 44.0431 28.8792C44.2248 29.3814 44.4063 29.8838 44.5877 30.3863C45.1393 31.9118 45.6956 33.4352 46.267 34.9534C46.4118 35.3403 46.5564 35.7272 46.7011 36.1141C46.8337 36.4665 46.9686 36.818 47.1036 37.1695C47.1826 37.3801 47.2614 37.5907 47.34 37.8013C47.3764 37.8937 47.4128 37.986 47.4503 38.0812C47.6794 38.7048 47.6962 39.153 47.5374 39.7965C47.3828 40.1085 47.3828 40.1085 47.1886 40.3805C47.0808 40.5345 47.0808 40.5345 46.9708 40.6916C46.893 40.7989 46.8153 40.9062 46.7353 41.0167C46.5719 41.2485 46.4085 41.4804 46.2451 41.7122C46.1633 41.8269 46.0815 41.9417 45.9972 42.0599C45.7262 42.4416 45.4614 42.8271 45.1977 43.2139C44.9555 43.569 44.7113 43.9225 44.467 44.2761C44.318 44.492 44.1693 44.708 44.0207 44.9241C43.7658 45.2947 43.5098 45.6645 43.2537 46.0342C43.1741 46.1503 43.0945 46.2664 43.0124 46.3859C41.8728 48.0249 41.8728 48.0249 41.1204 48.2614C40.477 48.3237 40.1642 48.3294 39.5845 48.0395C38.7801 47.3449 38.4962 46.517 38.1653 45.5345C38.0719 45.2653 37.9785 44.996 37.885 44.7268C37.7408 44.3067 37.5971 43.8865 37.4538 43.4661C36.5817 40.4241 36.5817 40.4241 34.567 38.1581C33.7194 37.7842 33.034 37.6887 32.113 37.6934C31.9812 37.6924 31.8494 37.6915 31.7136 37.6905C31.2804 37.688 30.8472 37.6886 30.414 37.6893C30.1106 37.6887 29.8073 37.688 29.5039 37.6872C28.8687 37.6859 28.2335 37.6863 27.5983 37.6876C26.7882 37.6892 25.9782 37.6865 25.1681 37.6825C24.5416 37.6799 23.915 37.68 23.2885 37.6808C22.9901 37.6808 22.6916 37.68 22.3932 37.6783C19.8552 37.6658 17.5211 37.9403 15.583 39.782C14.5289 40.918 13.9297 42.423 13.2956 43.8186C12.5143 45.5303 11.4168 47.4403 9.616 48.2529C8.98372 48.4596 8.41304 48.5516 7.74834 48.5586C7.60343 48.5604 7.45852 48.5621 7.30922 48.5639C7.07646 48.5654 7.07646 48.5654 6.83899 48.567C6.59789 48.5686 6.59789 48.5686 6.35192 48.5703C6.01234 48.5722 5.67277 48.5737 5.33319 48.5748C4.81421 48.5771 4.29534 48.5831 3.77639 48.5891C3.44617 48.5905 3.11596 48.5917 2.78574 48.5926C2.63084 48.595 2.47595 48.5974 2.31635 48.5998C1.4651 48.5975 0.941697 48.567 0.297792 47.9883C-0.0577656 47.5196 -0.0123129 47.0587 0.0247311 46.4865C0.162811 46.1327 0.303083 45.8207 0.479655 45.4881C0.527611 45.3939 0.575566 45.2996 0.624975 45.2026C0.778651 44.9014 0.934877 44.6017 1.09138 44.302C1.23811 44.0174 1.3843 43.7325 1.53028 43.4475C1.6335 43.2459 1.73685 43.0445 1.84037 42.8431C2.24839 42.0455 2.63644 41.2398 3.0197 40.4301C3.85817 38.6687 4.72969 36.9244 5.60458 35.1809C5.82568 34.7401 6.04641 34.2991 6.26717 33.8581C6.87274 32.6486 7.47886 31.4394 8.085 30.2301C8.64201 29.1189 9.19889 28.0076 9.75532 26.8961C9.97319 26.4609 10.1912 26.0258 10.4094 25.5908C11.2849 23.8462 12.1508 22.0984 12.9885 20.3354C13.701 18.8386 14.4443 17.3573 15.1871 15.8754C15.3394 15.5709 15.4918 15.2665 15.6441 14.962C16.0399 14.1708 16.4361 13.3797 16.8324 12.5887C17.236 11.783 17.6392 10.9771 18.0425 10.1712C18.6929 8.87172 19.3434 7.5723 19.9942 6.27302C20.0802 6.10125 20.0802 6.10125 20.168 5.926C20.2233 5.81574 20.2787 5.70548 20.3357 5.59188C20.4538 5.3555 20.5709 5.11866 20.6873 4.88147C20.7768 4.69981 20.7768 4.69981 20.8681 4.51447C20.948 4.35129 20.948 4.35129 21.0295 4.18481C22.0032 2.35536 24.1112 1.21183 25.9655 0.47569C26.0952 0.423595 26.225 0.3715 26.3586 0.317826C28.4132 -0.237602 30.4862 0.341876 32.2971 1.33754Z" fill="#FEFEFE"/>
<path d="M44.6704 0.202508C46.1266 0.164459 47.5827 0.135393 49.0393 0.11762C49.7158 0.109088 50.3919 0.0975274 51.0682 0.0789103C51.7215 0.0610381 52.3745 0.0512988 53.0281 0.0470641C53.2768 0.0440488 53.5254 0.0381596 53.7739 0.0292832C55.7171 -0.0373346 55.7171 -0.0373346 56.4172 0.551076C56.7331 0.967637 56.9835 1.38123 57.2312 1.84087C57.4099 2.09969 57.5912 2.35675 57.7763 2.61099C57.9533 2.86605 58.13 3.12134 58.3064 3.37684C58.4012 3.51359 58.4959 3.65034 58.5936 3.79124C59.1783 4.63555 59.7608 5.4814 60.3416 6.32848C60.8881 7.125 61.4404 7.91751 61.9927 8.71007C62.7355 9.77615 63.4731 10.8455 64.2051 11.919C64.7707 12.7475 65.3437 13.5706 65.918 14.3932C67.1289 16.1296 68.3183 17.8803 69.502 19.6354C69.6526 19.8587 69.8034 20.0818 69.9542 20.305C70.225 20.7062 70.495 21.1079 70.7648 21.5098C70.8448 21.6284 70.9248 21.7469 71.0073 21.8691C71.0797 21.9774 71.1521 22.0857 71.2267 22.1973C71.2895 22.2909 71.3524 22.3845 71.4171 22.481C71.8009 23.119 71.7854 23.786 71.7035 24.505C71.3378 25.4713 70.7424 26.3175 70.1419 27.1502C69.9714 27.3902 69.8009 27.6302 69.6304 27.8702C69.5439 27.9914 69.4573 28.1127 69.3681 28.2375C68.9596 28.8112 68.5568 29.3888 68.1537 29.9662C67.9946 30.1934 67.8355 30.4206 67.6763 30.6478C67.3555 31.1061 67.0352 31.5648 66.7153 32.0237C65.9491 33.1221 65.1782 34.2162 64.3905 35.2994C63.7873 36.1291 63.2004 36.968 62.6242 37.8167C61.9712 38.7783 61.3014 39.7256 60.6181 40.6659C59.9127 41.6368 59.2206 42.6167 58.5303 43.5984C58.1689 44.112 57.8067 44.625 57.4445 45.1381C57.3784 45.2319 57.3123 45.3256 57.2442 45.4222C57.1185 45.6004 56.9923 45.7785 56.8658 45.9562C56.7454 46.1275 56.6272 46.3003 56.5113 46.4746C56.1581 46.997 55.8322 47.3454 55.2857 47.681C55.1667 47.7563 55.0477 47.8317 54.9251 47.9093C53.6896 48.5364 52.5857 48.5901 51.2105 48.5743C51.0133 48.5736 50.8161 48.573 50.6189 48.5726C50.1038 48.571 49.5887 48.567 49.0736 48.5625C48.5464 48.5582 48.0192 48.5564 47.4919 48.5543C46.4604 48.55 45.4289 48.543 44.3973 48.5343C44.4945 48.1095 44.6131 47.8358 44.8731 47.4837C44.9788 47.339 44.9788 47.339 45.0867 47.1914C45.1633 47.0883 45.24 46.9852 45.3189 46.8789C45.4818 46.6567 45.6446 46.4345 45.8074 46.2122C45.891 46.0989 45.9745 45.9855 46.0605 45.8687C46.4424 45.3488 46.8192 44.8253 47.1962 44.3019C47.3441 44.0971 47.492 43.8923 47.6399 43.6875C47.7132 43.5861 47.7864 43.4847 47.8618 43.3803C48.6753 42.2539 49.4888 41.1275 50.3023 40.0012C50.4121 39.8491 50.4121 39.8491 50.5241 39.694C50.6721 39.4891 50.8201 39.2842 50.9682 39.0793C51.3366 38.5693 51.7048 38.0591 52.0724 37.5484C52.9097 36.3859 53.7541 35.2291 54.6053 34.0768C55.4439 32.9405 56.2698 31.7951 57.0947 30.6488C57.3875 30.242 57.6805 29.8352 57.9736 29.4286C58.0456 29.3286 58.1176 29.2287 58.1917 29.1257C58.5864 28.5789 58.9846 28.0349 59.3869 27.4937C59.4729 27.3779 59.5589 27.2621 59.6475 27.1427C59.8124 26.921 59.9778 26.6996 60.1437 26.4785C61.092 25.2874 61.092 25.2874 61.4045 23.8516C61.1091 22.6965 60.116 21.6984 59.3965 20.7776C57.9096 18.8666 56.5149 16.8815 55.1007 14.9165C54.1904 13.6519 53.2736 12.3925 52.3476 11.1394C51.7348 10.3092 51.1297 9.47378 50.5271 8.63624C49.9884 7.88866 49.4425 7.14672 48.8943 6.40612C48.0855 5.31221 47.2966 4.20569 46.5164 3.09132C46.2934 2.77482 46.0683 2.46 45.8426 2.1454C45.7665 2.03877 45.6903 1.93214 45.6118 1.82228C45.4649 1.61673 45.3174 1.41152 45.1695 1.20669C44.6704 0.506237 44.6704 0.506237 44.6704 0.202508Z" fill="#FEFEFE"/>
<path d="M73.0685 26.5529C73.5099 26.5704 73.7027 26.6433 74.0242 26.9497C74.1143 27.0666 74.2044 27.1834 74.2972 27.3039C74.4041 27.4408 74.5109 27.5777 74.621 27.7188C74.7407 27.8762 74.8603 28.0337 74.9799 28.1913C75.1122 28.3631 75.2447 28.5348 75.3772 28.7065C75.7556 29.198 76.1314 29.6915 76.5065 30.1855C76.8529 30.6415 77.2002 31.0969 77.5474 31.5523C77.8239 31.915 78.1003 32.2779 78.3766 32.6408C78.7529 33.1349 79.1294 33.6287 79.5062 34.1224C80.4073 35.3033 81.3055 36.4862 82.1951 37.6758C82.7148 38.37 83.2418 39.0582 83.7717 39.7447C84.3214 40.4569 84.8673 41.172 85.4133 41.887C85.7656 42.3484 86.1188 42.809 86.4724 43.2694C86.6664 43.5225 86.8604 43.7757 87.0543 44.0288C87.1447 44.1462 87.2351 44.2636 87.3282 44.3846C88.8627 46.3906 88.8627 46.3906 88.9999 47.1264C88.8735 47.7351 88.6669 47.9646 88.2233 48.3978C87.7974 48.5398 87.4964 48.5533 87.0495 48.5564C86.8926 48.5577 86.7358 48.559 86.5742 48.5603C86.3195 48.5612 86.3195 48.5612 86.0597 48.5621C85.8847 48.5629 85.7097 48.5636 85.5294 48.5644C85.1584 48.5659 84.7873 48.5667 84.4163 48.5672C83.9442 48.5679 83.4722 48.5712 83.0002 48.5751C82.5466 48.5782 82.0931 48.5785 81.6395 48.5792C81.4716 48.5808 81.3037 48.5825 81.1308 48.5843C79.6175 48.5804 78.4924 48.3685 77.3857 47.2997C76.7195 46.5482 76.1674 45.7186 75.6045 44.8886C75.2492 44.3705 74.8798 43.8629 74.5106 43.3547C74.3614 43.1487 74.2122 42.9427 74.0631 42.7366C73.989 42.6344 73.915 42.5321 73.8386 42.4268C73.3936 41.8123 72.9497 41.197 72.5056 40.5818C72.1345 40.0678 71.7631 39.554 71.3912 39.0407C70.6452 38.0106 69.9027 36.9781 69.1688 35.9394C69.1021 35.8451 69.0354 35.7507 68.9666 35.6535C68.8427 35.4776 68.7194 35.3012 68.597 35.1242C68.4361 34.8951 68.2675 34.6714 68.0984 34.4482C67.8803 34.0621 67.8803 34.0621 67.8654 33.7395C68.0974 33.1879 68.4436 32.7383 68.8019 32.2616C68.964 32.0417 69.1262 31.8218 69.2883 31.6019C69.3717 31.4895 69.4551 31.3771 69.5411 31.2613C69.8608 30.8283 70.1751 30.3915 70.489 29.9543C72.5824 27.039 72.5824 27.039 73.0685 26.5529Z" fill="#FDFDFD"/>
<path d="M79.1806 0.136211C79.3133 0.135433 79.3133 0.135433 79.4487 0.13464C79.7387 0.133635 80.0284 0.136538 80.3184 0.139611C80.521 0.139937 80.7236 0.14006 80.9262 0.13999C81.3497 0.140416 81.7732 0.142669 82.1966 0.146344C82.739 0.150991 83.2813 0.152027 83.8236 0.15182C84.2416 0.151895 84.6595 0.153393 85.0774 0.15537C85.2774 0.156238 85.4773 0.156777 85.6773 0.15698C85.9567 0.157573 86.236 0.159965 86.5154 0.162877C86.6742 0.163918 86.8331 0.164959 86.9967 0.166031C87.3953 0.20175 87.6192 0.257327 87.9502 0.475604C88.3476 0.986515 88.4122 1.33909 88.3598 1.97744C87.9199 2.9228 87.2107 3.74806 86.5707 4.56669C86.1634 5.08816 85.7723 5.61839 85.3903 6.15869C84.6119 7.25823 83.8108 8.34063 83.0098 9.42382C82.7664 9.75383 82.5241 10.0846 82.2821 10.4157C81.4244 11.5878 80.5517 12.745 79.6554 13.888C79.0093 14.7146 78.3857 15.5561 77.7665 16.4029C77.0514 17.3788 76.3193 18.3412 75.5828 19.301C75.453 19.4704 75.453 19.4704 75.3206 19.6432C75.2384 19.7501 75.1562 19.8571 75.0715 19.9672C74.8619 20.2476 74.667 20.534 74.4727 20.8251C74.1491 21.2432 74.0979 21.2827 73.6145 21.3648C72.9505 20.5788 72.3187 19.7837 71.7287 18.9414C71.2434 18.2491 70.7342 17.5838 70.2013 16.9275C69.6531 16.2489 69.1139 15.5654 68.597 14.8625C68.5383 14.785 68.4795 14.7075 68.4189 14.6276C68.1861 14.3057 68.0251 14.0259 67.9293 13.6391C68.0377 13.2307 68.2361 13.0327 68.5629 12.7724C69.12 12.4754 69.7389 12.5396 70.3554 12.5495C70.574 12.5483 70.574 12.5483 70.797 12.5472C71.2612 12.5449 71.7253 12.547 72.1895 12.55C72.6542 12.5523 73.1188 12.5535 73.5835 12.5514C73.8722 12.5502 74.161 12.5514 74.4496 12.5555C75.0568 12.5532 75.424 12.5496 75.9569 12.2397C76.244 11.9543 76.244 11.9543 76.2769 11.526C76.2362 11.1347 76.2362 11.1347 76.055 10.8775C75.314 10.4082 74.1812 10.5386 73.3279 10.5202C72.6179 10.4932 72.0941 10.4237 71.5666 9.89621C71.5382 9.49575 71.5223 9.10248 71.5154 8.70157C71.5103 8.59069 71.5052 8.47982 71.4999 8.36558C71.4916 7.79815 71.5202 7.51062 71.8343 7.02374C72.3934 6.66299 72.826 6.66433 73.478 6.67068C74.5012 6.68404 74.5012 6.68404 75.3894 6.20989C75.5717 5.84545 75.5433 5.50894 75.5516 5.10831C75.5982 3.28978 76.1538 2.07175 77.4374 0.748665C78.038 0.281655 78.4218 0.134354 79.1806 0.136211Z" fill="#FDFDFD"/>
<path d="M27.4674 16.4497C28.1616 16.9345 28.4626 17.3872 28.741 18.1894C28.7799 18.2952 28.8189 18.4011 28.859 18.5102C28.9898 18.8691 29.1163 19.2293 29.2423 19.5899C29.312 19.7867 29.312 19.7867 29.3831 19.9874C29.7402 20.9964 30.0893 22.008 30.437 23.0202C30.5918 23.4697 30.7467 23.9191 30.9017 24.3685C30.9972 24.6454 31.0925 24.9222 31.1876 25.1992C31.3834 25.7679 31.582 26.3344 31.7963 26.8965C31.9462 27.3002 32.035 27.595 32.0412 28.0206C32.0454 28.1185 32.0497 28.2164 32.054 28.3172C31.9273 28.7605 31.6694 28.8978 31.2903 29.147C30.8509 29.2164 30.8509 29.2164 30.3485 29.2177C30.2565 29.2186 30.1645 29.2196 30.0697 29.2206C29.767 29.223 29.4645 29.2214 29.1618 29.2196C28.9505 29.2199 28.7391 29.2205 28.5278 29.2211C28.0853 29.2219 27.643 29.2208 27.2005 29.2182C26.6348 29.2151 26.0691 29.2169 25.5033 29.2202C25.067 29.2221 24.6307 29.2215 24.1944 29.2201C23.9859 29.2197 23.7774 29.2202 23.5688 29.2215C23.2767 29.2228 22.9848 29.2207 22.6926 29.2177C22.5267 29.2173 22.3608 29.2168 22.1899 29.2164C21.6426 29.1333 21.3436 28.9436 20.914 28.6009C20.6741 28.1211 20.6983 27.6148 20.8637 27.1076C20.9896 26.8158 21.1261 26.5318 21.2681 26.2473C21.3198 26.14 21.3715 26.0326 21.4247 25.9219C21.5941 25.5711 21.766 25.2215 21.9379 24.8719C22.0559 24.6288 22.1737 24.3857 22.2913 24.1424C22.4718 23.7692 22.6524 23.396 22.8337 23.0232C23.2338 22.1998 23.6257 21.3729 24.011 20.5424C24.0606 20.4355 24.1103 20.3287 24.1615 20.2186C24.3512 19.8102 24.5409 19.4018 24.7291 18.9927C24.8572 18.7144 24.9865 18.4366 25.116 18.159C25.1882 18.0028 25.2603 17.8467 25.3346 17.6858C25.8293 16.7542 26.3513 16.1918 27.4674 16.4497Z" fill="#67FF5C"/>
</svg>
