<svg width="1067" height="428" viewBox="0 0 1067 428" fill="none" xmlns="http://www.w3.org/2000/svg">
<path d="M9.83602 165V10.125H37.556V156.705L25.061 142.11H96.251V165H9.83602ZM128.722 118.17V98.535H206.737L203.587 103.785C203.587 103.365 203.587 102.91 203.587 102.42C203.587 101.86 203.587 101.405 203.587 101.055C203.587 96.225 202.502 91.71 200.332 87.51C198.162 83.24 194.872 79.81 190.462 77.22C186.052 74.56 180.452 73.23 173.662 73.23C166.942 73.23 161.097 74.665 156.127 77.535C151.227 80.335 147.412 84.395 144.682 89.715C142.022 95.035 140.692 101.405 140.692 108.825C140.692 116.455 141.987 123.035 144.577 128.565C147.167 134.025 150.947 138.225 155.917 141.165C160.957 144.035 167.082 145.47 174.292 145.47C179.192 145.47 183.427 145.015 186.997 144.105C190.567 143.195 193.472 141.97 195.712 140.43C198.022 138.82 199.737 137.105 200.857 135.285C202.047 133.465 202.747 131.645 202.957 129.825H230.467C230.047 134.515 228.472 139.1 225.742 143.58C223.082 147.99 219.337 152.015 214.507 155.655C209.677 159.225 203.797 162.095 196.867 164.265C190.007 166.365 182.167 167.415 173.347 167.415C161.377 167.415 150.912 164.965 141.952 160.065C132.992 155.165 125.992 148.34 120.952 139.59C115.982 130.84 113.497 120.83 113.497 109.56C113.497 98.01 116.017 87.895 121.057 79.215C126.167 70.535 133.237 63.78 142.267 58.95C151.297 54.05 161.657 51.6 173.347 51.6C185.387 51.6 195.782 54.05 204.532 58.95C213.352 63.85 220.142 70.675 224.902 79.425C229.662 88.105 232.042 98.22 232.042 109.77C232.042 111.24 232.007 112.815 231.937 114.495C231.867 116.175 231.762 117.4 231.622 118.17H128.722ZM304.819 167.1C300.829 167.1 296.769 166.715 292.639 165.945C288.509 165.175 284.729 163.74 281.299 161.64C277.869 159.54 275.104 156.46 273.004 152.4C270.904 148.34 269.854 142.985 269.854 136.335C269.854 134.795 269.854 133.255 269.854 131.715C269.854 130.105 269.854 128.46 269.854 126.78V75.54H243.499V53.49H254.209C257.849 53.49 260.719 53.35 262.819 53.07C264.919 52.72 266.459 51.95 267.439 50.76C268.419 49.57 269.049 47.715 269.329 45.195C269.679 42.605 269.854 39.035 269.854 34.485V16.74H297.574V53.49H330.754V75.54H297.574V120.27C297.574 121.6 297.574 122.93 297.574 124.26C297.574 125.52 297.574 126.745 297.574 127.935C297.574 133.115 298.204 137.28 299.464 140.43C300.724 143.58 303.699 145.155 308.389 145.155C310.629 145.155 312.729 144.945 314.689 144.525C316.719 144.105 318.224 143.685 319.204 143.265V164.895C317.874 165.385 315.949 165.875 313.429 166.365C310.909 166.855 308.039 167.1 304.819 167.1ZM361.581 35.85C357.031 35.85 353.356 34.52 350.556 31.86C347.826 29.2 346.461 25.63 346.461 21.15C346.461 16.6 347.966 12.855 350.976 9.91499C353.986 6.97499 358.326 5.50499 363.996 5.50499C369.736 5.50499 374.111 7.42999 377.121 11.28C380.201 15.06 381.741 19.925 381.741 25.875C381.741 31.545 380.341 36.585 377.541 40.995C374.741 45.335 371.241 49.045 367.041 52.125C362.841 55.135 358.641 57.48 354.441 59.16L350.976 52.335C353.916 51.145 356.786 49.535 359.586 47.505C362.456 45.475 364.836 43.235 366.726 40.785C368.616 38.265 369.561 35.71 369.561 33.12C369.281 33.54 368.441 34.1 367.041 34.8C365.641 35.5 363.821 35.85 361.581 35.85ZM442.384 167.31C435.734 167.31 429.399 166.575 423.379 165.105C417.429 163.635 412.109 161.43 407.419 158.49C402.799 155.55 399.124 151.91 396.394 147.57C393.734 143.16 392.404 138.085 392.404 132.345C392.404 131.925 392.404 131.505 392.404 131.085C392.404 130.665 392.404 130.28 392.404 129.93H419.914C419.914 130.28 419.914 130.595 419.914 130.875C419.914 131.085 419.914 131.4 419.914 131.82C419.914 136.37 421.979 139.8 426.109 142.11C430.309 144.35 436.014 145.47 443.224 145.47C447.144 145.47 450.819 145.05 454.249 144.21C457.749 143.37 460.549 142.075 462.649 140.325C464.819 138.575 465.904 136.335 465.904 133.605C465.904 129.195 463.629 126.045 459.079 124.155C454.599 122.265 447.529 120.55 437.869 119.01C432.549 118.1 427.299 116.875 422.119 115.335C416.939 113.795 412.214 111.73 407.944 109.14C403.744 106.55 400.349 103.33 397.759 99.48C395.239 95.63 393.979 90.94 393.979 85.41C393.979 78.06 396.149 71.9 400.489 66.93C404.899 61.89 410.779 58.075 418.129 55.485C425.549 52.895 433.704 51.6 442.594 51.6C451.134 51.6 459.079 53 466.429 55.8C473.779 58.6 479.694 62.625 484.174 67.875C488.724 73.125 490.999 79.46 490.999 86.88C490.999 87.16 490.999 87.475 490.999 87.825C490.999 88.105 490.999 88.35 490.999 88.56H463.699C463.699 88.35 463.699 88.14 463.699 87.93C463.699 87.72 463.699 87.475 463.699 87.195C463.699 83.975 462.684 81.35 460.654 79.32C458.624 77.29 455.999 75.785 452.779 74.805C449.559 73.825 446.164 73.335 442.594 73.335C439.444 73.335 436.189 73.685 432.829 74.385C429.469 75.015 426.669 76.17 424.429 77.85C422.189 79.46 421.069 81.735 421.069 84.675C421.069 87.475 422.224 89.75 424.534 91.5C426.844 93.25 430.064 94.72 434.194 95.91C438.324 97.03 443.084 98.045 448.474 98.955C453.584 99.795 458.729 100.95 463.909 102.42C469.159 103.89 473.954 105.85 478.294 108.3C482.634 110.75 486.134 113.97 488.794 117.96C491.524 121.88 492.889 126.745 492.889 132.555C492.889 138.715 491.489 143.965 488.689 148.305C485.889 152.645 482.074 156.25 477.244 159.12C472.484 161.92 467.094 163.985 461.074 165.315C455.054 166.645 448.824 167.31 442.384 167.31ZM658.049 165L632.114 53.49H653.219L678.524 156.285H674.009L690.179 53.49H718.844L695.954 165H658.049ZM581.189 165L558.194 53.49H586.859L603.134 156.285H598.619L623.714 53.49H644.819L619.304 165H581.189ZM790.322 167.205C778.562 167.205 768.202 164.755 759.242 159.855C750.282 154.885 743.247 148.025 738.137 139.275C733.097 130.525 730.577 120.515 730.577 109.245C730.577 97.905 733.097 87.93 738.137 79.32C743.247 70.64 750.282 63.85 759.242 58.95C768.202 54.05 778.562 51.6 790.322 51.6C802.082 51.6 812.442 54.05 821.402 58.95C830.362 63.85 837.362 70.64 842.402 79.32C847.512 87.93 850.067 97.905 850.067 109.245C850.067 120.515 847.512 130.525 842.402 139.275C837.362 148.025 830.362 154.885 821.402 159.855C812.442 164.755 802.082 167.205 790.322 167.205ZM790.322 144.63C796.692 144.63 802.257 143.16 807.017 140.22C811.777 137.28 815.487 133.185 818.147 127.935C820.807 122.615 822.137 116.385 822.137 109.245C822.137 102.105 820.807 95.945 818.147 90.765C815.487 85.515 811.777 81.455 807.017 78.585C802.257 75.715 796.692 74.28 790.322 74.28C784.022 74.28 778.457 75.715 773.627 78.585C768.867 81.455 765.157 85.515 762.497 90.765C759.837 95.945 758.507 102.105 758.507 109.245C758.507 116.385 759.837 122.615 762.497 127.935C765.157 133.185 768.867 137.28 773.627 140.22C778.457 143.16 784.022 144.63 790.322 144.63ZM872.915 165V53.49H900.53V90.555L894.125 86.985C894.825 82.155 896.12 77.605 898.01 73.335C899.9 68.995 902.42 65.215 905.57 61.995C908.72 58.705 912.535 56.15 917.015 54.33C921.495 52.51 926.605 51.6 932.345 51.6C936.895 51.6 940.465 51.95 943.055 52.65C945.715 53.28 947.36 53.805 947.99 54.225L942.95 79.53C942.25 79.04 940.815 78.445 938.645 77.745C936.545 76.975 933.71 76.59 930.14 76.59C924.47 76.59 919.71 77.57 915.86 79.53C912.08 81.42 909.07 84.01 906.83 87.3C904.59 90.52 902.98 94.09 902 98.01C901.02 101.86 900.53 105.71 900.53 109.56V165H872.915ZM965.405 165V0.884991H991.655V97.065L985.67 94.125L1031.76 53.49H1066.1L1011.5 102.105L1017.69 90.765L1065.57 165H1036.38L999.635 105.465L1006.35 106.62L988.505 122.58L991.655 110.295V165H965.405ZM61.391 382.1C57.401 382.1 53.341 381.715 49.211 380.945C45.081 380.175 41.301 378.74 37.871 376.64C34.441 374.54 31.676 371.46 29.576 367.4C27.476 363.34 26.426 357.985 26.426 351.335C26.426 349.795 26.426 348.255 26.426 346.715C26.426 345.105 26.426 343.46 26.426 341.78V290.54H0.0710159V268.49H10.781C14.421 268.49 17.291 268.35 19.391 268.07C21.491 267.72 23.031 266.95 24.011 265.76C24.991 264.57 25.621 262.715 25.901 260.195C26.251 257.605 26.426 254.035 26.426 249.485V231.74H54.146V268.49H87.326V290.54H54.146V335.27C54.146 336.6 54.146 337.93 54.146 339.26C54.146 340.52 54.146 341.745 54.146 342.935C54.146 348.115 54.776 352.28 56.036 355.43C57.296 358.58 60.271 360.155 64.961 360.155C67.201 360.155 69.301 359.945 71.261 359.525C73.291 359.105 74.796 358.685 75.776 358.265V379.895C74.446 380.385 72.521 380.875 70.001 381.365C67.481 381.855 64.611 382.1 61.391 382.1ZM159.912 382.205C148.152 382.205 137.792 379.755 128.832 374.855C119.872 369.885 112.837 363.025 107.727 354.275C102.687 345.525 100.167 335.515 100.167 324.245C100.167 312.905 102.687 302.93 107.727 294.32C112.837 285.64 119.872 278.85 128.832 273.95C137.792 269.05 148.152 266.6 159.912 266.6C171.672 266.6 182.032 269.05 190.992 273.95C199.952 278.85 206.952 285.64 211.992 294.32C217.102 302.93 219.657 312.905 219.657 324.245C219.657 335.515 217.102 345.525 211.992 354.275C206.952 363.025 199.952 369.885 190.992 374.855C182.032 379.755 171.672 382.205 159.912 382.205ZM159.912 359.63C166.282 359.63 171.847 358.16 176.607 355.22C181.367 352.28 185.077 348.185 187.737 342.935C190.397 337.615 191.727 331.385 191.727 324.245C191.727 317.105 190.397 310.945 187.737 305.765C185.077 300.515 181.367 296.455 176.607 293.585C171.847 290.715 166.282 289.28 159.912 289.28C153.612 289.28 148.047 290.715 143.217 293.585C138.457 296.455 134.747 300.515 132.087 305.765C129.427 310.945 128.097 317.105 128.097 324.245C128.097 331.385 129.427 337.615 132.087 342.935C134.747 348.185 138.457 352.28 143.217 355.22C148.047 358.16 153.612 359.63 159.912 359.63ZM317.475 368.975C324.055 369.605 329.83 370.83 334.8 372.65C339.77 374.47 343.655 377.165 346.455 380.735C349.255 384.375 350.655 389.205 350.655 395.225C350.655 401.945 348.38 407.755 343.83 412.655C339.28 417.555 332.595 421.335 323.775 423.995C315.025 426.655 304.245 427.985 291.435 427.985C272.815 427.985 258.5 425.29 248.49 419.9C238.48 414.58 233.475 407.335 233.475 398.165C233.475 395.575 233.79 393.23 234.42 391.13C235.05 389.03 235.82 387.28 236.73 385.88L262.035 389.555C261.615 390.115 261.195 390.99 260.775 392.18C260.355 393.44 260.145 394.945 260.145 396.695C260.145 401.035 263.05 404.15 268.86 406.04C274.74 408 282.545 408.98 292.275 408.98C299.415 408.98 305.365 408.49 310.125 407.51C314.955 406.53 318.595 405.13 321.045 403.31C323.565 401.49 324.825 399.355 324.825 396.905C324.825 393.265 323.18 390.92 319.89 389.87C316.6 388.82 312.68 388.12 308.13 387.77L265.815 383.885C258.255 383.115 252.025 380.875 247.125 377.165C242.295 373.455 239.88 368.555 239.88 362.465C239.88 358.755 240.86 355.325 242.82 352.175C244.85 349.025 247.16 346.4 249.75 344.3C252.34 342.13 254.545 340.8 256.365 340.31L272.115 348.08C270.645 348.29 268.895 349.235 266.865 350.915C264.905 352.595 263.925 354.59 263.925 356.9C263.925 359.07 264.905 360.89 266.865 362.36C268.825 363.76 272.605 364.74 278.205 365.3L317.475 368.975ZM329.97 268.49H354.75L344.67 311.75C342.78 319.87 339.735 327.15 335.535 333.59C331.335 340.03 325.735 345.105 318.735 348.815C311.735 352.525 302.915 354.38 292.275 354.38C281.215 354.38 271.66 352.595 263.61 349.025C255.63 345.385 249.47 340.31 245.13 333.8C240.79 327.22 238.62 319.66 238.62 311.12C238.62 302.37 240.825 294.67 245.235 288.02C249.715 281.3 255.84 276.05 263.61 272.27C271.45 268.49 280.305 266.6 290.175 266.6C298.155 266.6 305.33 267.93 311.7 270.59C318.07 273.18 323.145 276.575 326.925 280.775C330.775 284.975 332.84 289.455 333.12 294.215L326.925 295.37L329.97 268.49ZM292.17 333.065C297.56 333.065 302.215 332.19 306.135 330.44C310.055 328.69 313.1 326.17 315.27 322.88C317.44 319.52 318.525 315.46 318.525 310.7C318.525 306.01 317.44 301.985 315.27 298.625C313.1 295.265 310.055 292.71 306.135 290.96C302.215 289.14 297.595 288.23 292.275 288.23C287.095 288.23 282.51 289.14 278.52 290.96C274.53 292.78 271.38 295.405 269.07 298.835C266.83 302.195 265.71 306.22 265.71 310.91C265.71 315.6 266.795 319.625 268.965 322.985C271.205 326.275 274.285 328.795 278.205 330.545C282.195 332.225 286.85 333.065 292.17 333.065ZM379.123 333.17V313.535H457.138L453.988 318.785C453.988 318.365 453.988 317.91 453.988 317.42C453.988 316.86 453.988 316.405 453.988 316.055C453.988 311.225 452.903 306.71 450.733 302.51C448.563 298.24 445.273 294.81 440.863 292.22C436.453 289.56 430.853 288.23 424.063 288.23C417.343 288.23 411.498 289.665 406.528 292.535C401.628 295.335 397.813 299.395 395.083 304.715C392.423 310.035 391.093 316.405 391.093 323.825C391.093 331.455 392.388 338.035 394.978 343.565C397.568 349.025 401.348 353.225 406.318 356.165C411.358 359.035 417.483 360.47 424.693 360.47C429.593 360.47 433.828 360.015 437.398 359.105C440.968 358.195 443.873 356.97 446.113 355.43C448.423 353.82 450.138 352.105 451.258 350.285C452.448 348.465 453.148 346.645 453.358 344.825H480.868C480.448 349.515 478.873 354.1 476.143 358.58C473.483 362.99 469.738 367.015 464.908 370.655C460.078 374.225 454.198 377.095 447.268 379.265C440.408 381.365 432.568 382.415 423.748 382.415C411.778 382.415 401.313 379.965 392.353 375.065C383.393 370.165 376.393 363.34 371.353 354.59C366.383 345.84 363.898 335.83 363.898 324.56C363.898 313.01 366.418 302.895 371.458 294.215C376.568 285.535 383.638 278.78 392.668 273.95C401.698 269.05 412.058 266.6 423.748 266.6C435.788 266.6 446.183 269.05 454.933 273.95C463.753 278.85 470.543 285.675 475.303 294.425C480.063 303.105 482.443 313.22 482.443 324.77C482.443 326.24 482.408 327.815 482.338 329.495C482.268 331.175 482.163 332.4 482.023 333.17H379.123ZM555.219 382.1C551.229 382.1 547.169 381.715 543.039 380.945C538.909 380.175 535.129 378.74 531.699 376.64C528.269 374.54 525.504 371.46 523.404 367.4C521.304 363.34 520.254 357.985 520.254 351.335C520.254 349.795 520.254 348.255 520.254 346.715C520.254 345.105 520.254 343.46 520.254 341.78V290.54H493.899V268.49H504.609C508.249 268.49 511.119 268.35 513.219 268.07C515.319 267.72 516.859 266.95 517.839 265.76C518.819 264.57 519.449 262.715 519.729 260.195C520.079 257.605 520.254 254.035 520.254 249.485V231.74H547.974V268.49H581.154V290.54H547.974V335.27C547.974 336.6 547.974 337.93 547.974 339.26C547.974 340.52 547.974 341.745 547.974 342.935C547.974 348.115 548.604 352.28 549.864 355.43C551.124 358.58 554.099 360.155 558.789 360.155C561.029 360.155 563.129 359.945 565.089 359.525C567.119 359.105 568.624 358.685 569.604 358.265V379.895C568.274 380.385 566.349 380.875 563.829 381.365C561.309 381.855 558.439 382.1 555.219 382.1ZM680.966 380V339.785C680.966 338.105 680.966 336.005 680.966 333.485C680.966 330.965 680.966 328.41 680.966 325.82C680.966 323.23 680.966 321.095 680.966 319.415C680.966 310.175 679.146 303.105 675.506 298.205C671.936 293.235 665.811 290.75 657.131 290.75C651.321 290.75 646.351 291.905 642.221 294.215C638.161 296.455 635.046 299.605 632.876 303.665C630.706 307.725 629.621 312.415 629.621 317.735L619.541 312.38C619.541 303.49 621.536 295.615 625.526 288.755C629.586 281.825 635.186 276.4 642.326 272.48C649.466 268.56 657.656 266.6 666.896 266.6C680.406 266.6 690.731 270.625 697.871 278.675C705.011 286.655 708.581 297.785 708.581 312.065C708.581 315.705 708.581 320.045 708.581 325.085C708.581 330.055 708.581 335.655 708.581 341.885V380H680.966ZM602.006 380V215.885H629.621V380H602.006ZM745.597 333.17V313.535H823.612L820.462 318.785C820.462 318.365 820.462 317.91 820.462 317.42C820.462 316.86 820.462 316.405 820.462 316.055C820.462 311.225 819.377 306.71 817.207 302.51C815.037 298.24 811.747 294.81 807.337 292.22C802.927 289.56 797.327 288.23 790.537 288.23C783.817 288.23 777.972 289.665 773.002 292.535C768.102 295.335 764.287 299.395 761.557 304.715C758.897 310.035 757.567 316.405 757.567 323.825C757.567 331.455 758.862 338.035 761.452 343.565C764.042 349.025 767.822 353.225 772.792 356.165C777.832 359.035 783.957 360.47 791.167 360.47C796.067 360.47 800.302 360.015 803.872 359.105C807.442 358.195 810.347 356.97 812.587 355.43C814.897 353.82 816.612 352.105 817.732 350.285C818.922 348.465 819.622 346.645 819.832 344.825H847.342C846.922 349.515 845.347 354.1 842.617 358.58C839.957 362.99 836.212 367.015 831.382 370.655C826.552 374.225 820.672 377.095 813.742 379.265C806.882 381.365 799.042 382.415 790.222 382.415C778.252 382.415 767.787 379.965 758.827 375.065C749.867 370.165 742.867 363.34 737.827 354.59C732.857 345.84 730.372 335.83 730.372 324.56C730.372 313.01 732.892 302.895 737.932 294.215C743.042 285.535 750.112 278.78 759.142 273.95C768.172 269.05 778.532 266.6 790.222 266.6C802.262 266.6 812.657 269.05 821.407 273.95C830.227 278.85 837.017 285.675 841.777 294.425C846.537 303.105 848.917 313.22 848.917 324.77C848.917 326.24 848.882 327.815 848.812 329.495C848.742 331.175 848.637 332.4 848.497 333.17H745.597ZM871.684 380V268.49H899.299V305.555L892.894 301.985C893.594 297.155 894.889 292.605 896.779 288.335C898.669 283.995 901.189 280.215 904.339 276.995C907.489 273.705 911.304 271.15 915.784 269.33C920.264 267.51 925.374 266.6 931.114 266.6C935.664 266.6 939.234 266.95 941.824 267.65C944.484 268.28 946.129 268.805 946.759 269.225L941.719 294.53C941.019 294.04 939.584 293.445 937.414 292.745C935.314 291.975 932.479 291.59 928.909 291.59C923.239 291.59 918.479 292.57 914.629 294.53C910.849 296.42 907.839 299.01 905.599 302.3C903.359 305.52 901.749 309.09 900.769 313.01C899.789 316.86 899.299 320.71 899.299 324.56V380H871.684Z" fill="#2D2D2D" fill-opacity="0.2"/>
</svg>
