<svg width="410" height="432" viewBox="0 0 410 432" fill="none" xmlns="http://www.w3.org/2000/svg">
<path d="M164.363 -67.1006C197.934 -108.272 266.056 -99.5315 295.921 -90.0146C330.172 -75.3842 364 -86.314 390.891 -64.5675C417.782 -42.8209 397.548 -4.61888 427.705 76.1675C457.861 156.954 433.278 238.523 392.585 315.775C351.891 393.027 305.526 389.692 199.849 380.461C94.1719 371.231 43.9812 304.161 29.177 247.483C14.3728 190.804 101.685 166.817 87.3982 77.6828C72.5431 -14.9952 122.4 -15.6357 164.363 -67.1006Z" fill="#2296F3" stroke="#2296F3" stroke-width="5"/>
<path d="M163.234 25.2973C211.531 40.4195 261.504 2.24919 280.454 -18.7262L299.109 -13.7277C268.412 26.2148 327.736 69.3753 329.655 119.875C331.573 170.374 295.854 154.442 281.208 202.32C269.49 240.623 296.319 270.29 311.198 280.335C301.771 313.254 262.704 373.129 181.847 349.282C110.594 328.268 89.92 244.915 87.5503 191.824C86.988 179.226 92.7425 167.372 99.0647 156.46C114.058 130.584 126.776 88.5517 132.083 66.9357C146.657 61.3889 158.923 36.8656 163.234 25.2973Z" fill="white"/>
<path d="M132.862 243.996L185.859 261.197C189.872 262.272 200.38 263.888 210.314 261.749C222.732 259.075 287.196 288.35 264.043 260.544C240.89 232.737 227.692 248.403 208.59 251.386C189.489 254.369 205.802 241.638 180.942 235.877C161.055 231.268 140.602 239.369 132.862 243.996Z" stroke="#2296F3" stroke-width="5"/>
<path d="M155.141 252.666C153.122 265.427 158.66 291.714 196.964 294.776C235.267 297.839 241.519 278.912 239.857 269.065" stroke="#2296F3" stroke-width="5"/>
<path d="M292.675 108.898C298.462 102.528 308.963 105.961 313.49 108.475C320.319 111.074 321.732 132.585 306.365 135.069C290.998 137.552 285.441 116.861 292.675 108.898Z" fill="#2296F3"/>
<path d="M176.805 88.9516C178.266 79.0218 190.502 78.52 196.437 79.5103C206.235 82.1356 210.398 97.9527 201.914 104.98C193.43 112.008 174.98 101.364 176.805 88.9516Z" fill="#2296F3"/>
<path d="M217.131 103.057C216.404 91.9611 207.46 69.5023 177.502 68.4359C140.055 67.103 145.159 123.077 201.968 122.697" stroke="#2296F3" stroke-width="5" stroke-linecap="round"/>
<path d="M227.008 39.6963C207.772 35.3422 168.67 26.525 166.146 26.0888C155.845 23.3285 153.145 32.8063 153.083 37.8903C155.79 47.4965 199.793 56.9071 221.457 60.4115L227.008 39.6963Z" fill="#2296F3"/>
<path d="M276.705 77.6155L281.655 59.1396L315.807 68.2907L325.913 94.4012L276.705 77.6155Z" fill="#2296F3"/>
<path d="M227.917 59.4422C229.857 76.4639 228.258 117.74 206.344 146.672C178.952 182.838 205.314 212.104 240.238 200.459" stroke="#2296F3" stroke-width="5" stroke-linecap="round"/>
<path d="M322.745 97.4528C309.08 92.0911 279.814 86.1294 272.07 105.177C262.39 128.986 296.446 156.413 316.837 151.976" stroke="#2296F3" stroke-width="5" stroke-linecap="round"/>
<path d="M266.797 80.0612C260.138 112.381 248.018 179.261 252.816 188.228C257.614 197.194 243.878 190.233 236.41 185.632" stroke="#2296F3" stroke-width="5" stroke-linecap="round"/>
</svg>
