<svg width="410" height="472" viewBox="0 0 410 472" fill="none" xmlns="http://www.w3.org/2000/svg">
<path d="M173.166 -1.77356C197.801 -38.8793 225.121 -38.0228 235.702 -32.9564C245.936 -22.9455 280.464 -0.77027 336.703 7.84429C407.001 18.6125 423.229 44.1069 421.14 115.36C419.469 172.363 397.243 204.739 386.338 213.801C420.157 220.129 409.904 225.401 389.948 273.496C373.983 311.973 351.006 304.669 341.513 296.208C317.744 334.674 275.04 370.511 256.66 383.621C135.253 459.833 79.9748 355.37 81.2855 267.871C82.5963 180.373 142.373 44.6086 173.166 -1.77356Z" fill="white" stroke="#2296F3" stroke-width="5"/>
<path d="M120.205 250.144C149.928 266.697 218.017 299.571 252.589 298.646" stroke="#2296F3" stroke-width="5"/>
<path d="M252.364 299.159C231.434 283.419 175.45 251.593 118.958 250.206C126.804 273.03 164.471 314.773 252.364 299.159Z" stroke="#2296F3" stroke-width="5"/>
<path d="M155.778 -14.9347C141.124 21.6724 135.411 57.6492 134.386 71.0617C162.722 -9.92041 205.079 -31.7608 222.715 -32.5583C250.479 -13.4022 314.796 24.6212 349.957 23.4661C393.908 22.0221 413.686 38.0698 400.032 66.3096C386.378 94.5493 360.949 221.583 392.728 206.217C424.507 190.85 445.144 120.424 444.862 31.0008C444.58 -58.4224 363.716 -75.6775 292.548 -94.1685C221.379 -112.659 250.6 -40.465 227.876 -55.3634C205.152 -70.2618 174.096 -60.6936 155.778 -14.9347Z" fill="#2296F3"/>
<path d="M222.23 87.6067C221.872 82.4065 169.976 64.4888 144.072 56.18C139.763 63.4614 132.399 77.5812 137.415 75.8087C143.685 73.593 207.527 100.707 214.888 104.28C222.25 107.853 222.677 94.107 222.23 87.6067Z" fill="#2296F3" stroke="#2296F3" stroke-width="5"/>
<path d="M355.417 177.434C336.448 158.134 263.94 134.171 258.056 118.974C253.662 107.623 263.364 107.144 269.815 108.495C290.577 115.556 335.965 132.177 351.421 142.167C370.741 154.655 374.385 196.734 355.417 177.434Z" fill="#2296F3"/>
<path d="M271.136 108.808C270.716 108.697 270.274 108.591 269.815 108.495M269.815 108.495C263.364 107.144 253.662 107.623 258.056 118.974C263.94 134.171 336.448 158.134 355.417 177.434C374.385 196.734 370.741 154.655 351.421 142.167C335.965 132.177 290.577 115.556 269.815 108.495Z" stroke="#2296F3" stroke-width="5"/>
<path d="M249.774 152.816C257.547 131.555 304.343 150.634 326.769 162.83C360.406 179.631 377.314 223.901 323.292 223.339C269.27 222.776 240.058 179.392 249.774 152.816Z" stroke="#2296F3" stroke-width="5"/>
<path d="M247.672 222.224C244.189 231.638 233.642 245.971 219.323 227.988C205.315 231.995 177.131 234.227 176.457 211.106C175.952 193.748 193.821 176.943 208.612 161.233M208.612 161.233C218.449 150.783 226.924 140.818 227.724 131.496C229.726 108.159 155.058 81.5857 134.869 90.6117C114.68 99.6377 138.586 178.837 208.612 161.233Z" stroke="#2296F3" stroke-width="5"/>
<path d="M174.676 114.546C181.899 108.247 191.366 114.537 195.197 118.47C204.611 126.565 198.207 141.636 188.506 139.456C178.805 137.276 165.647 122.421 174.676 114.546Z" fill="#2296F3"/>
<path d="M290.257 171.013C294.85 160.582 305.952 163.44 310.929 166.174C319.858 170.106 327.947 182.264 320.534 190.152C313.12 198.041 284.516 184.053 290.257 171.013Z" fill="#2296F3"/>
<path d="M122.859 309.245C122.118 310.928 122.199 313.525 122.286 315.34" stroke="#2296F3" stroke-width="3" stroke-linecap="round"/>
<path d="M144.668 322.021C144.12 323.652 144.311 325.228 143.601 326.841" stroke="#2296F3" stroke-width="3" stroke-linecap="round"/>
<path d="M171.77 332.367L169.819 336.798" stroke="#2296F3" stroke-width="3" stroke-linecap="round"/>
<path d="M192.786 342.15L190.445 347.466" stroke="#2296F3" stroke-width="3" stroke-linecap="round"/>
<path d="M223.279 355.576C222.644 357.018 222.147 360.655 223.148 361.865" stroke="#2296F3" stroke-width="3" stroke-linecap="round"/>
<path d="M243.165 364.332C241.694 364.08 241.208 366.381 240.721 367.487" stroke="#2296F3" stroke-width="3" stroke-linecap="round"/>
<path d="M205.482 358.848C204.662 360.711 203.925 362.375 203.583 364.359" stroke="#2296F3" stroke-width="3" stroke-linecap="round"/>
<path d="M176.821 352.047L174.09 358.249" stroke="#2296F3" stroke-width="3" stroke-linecap="round"/>
<path d="M155.713 344.868C154.504 347.615 154.288 350.5 153.085 353.232" stroke="#2296F3" stroke-width="3" stroke-linecap="round"/>
<path d="M131.068 336.133C130.064 338.414 129.825 340.361 129.221 342.725" stroke="#2296F3" stroke-width="3" stroke-linecap="round"/>
<path d="M138.968 356.537C138.659 359.299 137.831 361.516 136.73 364.015" stroke="#2296F3" stroke-width="3" stroke-linecap="round"/>
<path d="M160.231 366.958C158.962 369.84 158.158 372.334 158.046 375.517" stroke="#2296F3" stroke-width="3" stroke-linecap="round"/>
<path d="M183.395 371.867C182.853 373.763 182.288 375.579 181.496 377.378" stroke="#2296F3" stroke-width="3" stroke-linecap="round"/>
<path d="M201.072 379.65C200.857 381.331 200.237 382.745 199.563 384.275" stroke="#2296F3" stroke-width="3" stroke-linecap="round"/>
<path d="M220.544 379.761C220.381 381.495 220.18 382.983 219.477 384.58" stroke="#2296F3" stroke-width="3" stroke-linecap="round"/>
<path d="M188.006 391.352L186.445 394.896" stroke="#2296F3" stroke-width="3" stroke-linecap="round"/>
<path d="M181.646 246.048C185.126 244.017 185.375 239.186 183.204 236.263C181.165 233.519 176.353 230.714 173.727 234.414C172.053 236.772 171.115 239.767 169.953 242.406C169.539 243.347 170.739 240.476 170.846 239.454C171.193 236.129 169.719 233.392 166.905 231.743C164.57 230.375 160.792 227.716 157.927 227.892C156.034 228.008 154.84 230.435 154.065 231.861C153.538 232.832 151.179 236.77 153.066 237.601C154.062 238.04 154.908 237.151 155.365 236.315C156.518 234.202 154.895 232.793 153.309 231.554C151.621 230.234 148.957 228.261 146.621 228.635C144.462 228.98 142.963 231.96 142.144 233.712C141.946 234.136 140.815 235.95 141.19 236.458C141.577 236.983 142.229 236.274 142.268 235.86C142.504 233.354 139.488 230.778 137.665 229.595C136.714 228.977 133.363 226.776 132.193 227.849C131.651 228.346 129.5 232.701 130.073 232.432C131.351 231.833 130.005 229.542 129.449 228.99C127.832 227.387 124.718 226.387 122.476 226.431C119.9 226.481 118.056 229.824 117.247 231.943C116.98 232.641 118.987 233.276 118.183 232.304C114.942 228.389 106.48 225.388 102.512 229.771C101.496 230.893 100.918 232.535 100.742 234.023C100.427 236.677 104.192 237.817 105.926 238.91" stroke="#2296F3" stroke-width="3" stroke-linecap="round"/>
<path d="M187.024 248.416C189.557 244.586 192.225 240.012 197.441 241.996C199.542 242.794 200.633 243.66 199.9 246.015C199.43 247.524 197.361 250.2 197.523 251.761C197.548 252.005 208.07 247.126 209.76 249.539C211.108 251.463 210.536 253.174 211.172 255.243C212.055 258.116 217.091 257.296 219.328 257.429C220.997 257.529 223.236 258.7 223.423 260.509C223.614 262.352 223.279 263.197 225.729 262.852C226.813 262.7 232.817 262.077 233.159 263.621C233.424 264.817 233.08 266.231 232.209 267.11C230.877 268.454 234.088 267.585 234.685 267.562C238.201 267.427 241.933 267.526 245.437 267.903C246.398 268.007 247.311 268.997 247.405 269.97C247.622 272.213 246.26 272.472 248.959 274.077C251.641 275.671 260.508 276.796 257.481 281.276C256.644 282.516 263.202 285.574 264.802 285.649C266.452 285.726 259.32 291.758 262.599 291.983C265.218 292.162 267.178 290.923 268.931 293.571C270.109 295.35 270.041 296.978 271.208 298.812" stroke="#2296F3" stroke-width="3" stroke-linecap="round"/>
</svg>
