<svg width="605" height="596" viewBox="0 0 605 596" fill="none" xmlns="http://www.w3.org/2000/svg">
<path d="M302 0C302.66 0.33 303.32 0.66 304 1C304.448 3.56411 304.762 6.04256 305.004 8.62891C305.126 9.8278 305.126 9.8278 305.251 11.0509C306.174 20.3233 306.93 29.612 307.689 38.899C308.901 53.7072 310.18 68.4864 311.923 83.2424C313.008 92.6042 313.799 101.983 314.562 111.375C314.626 112.152 314.689 112.929 314.754 113.729C315.001 116.76 315.247 119.791 315.493 122.822C316.463 134.745 317.523 146.644 319.125 158.5C320.026 165.368 320.213 172.082 320 179C320.66 179 321.32 179 322 179C322.252 178.096 322.252 178.096 322.509 177.173C324.336 170.831 326.599 164.816 329.188 158.75C329.615 157.736 330.042 156.722 330.482 155.677C331.71 152.765 332.942 149.855 334.176 146.946C336.643 141.121 339.096 135.291 341.551 129.462C342.23 127.852 342.908 126.242 343.587 124.632C351.436 106.011 359.17 87.3434 366.895 68.6713C369.955 61.2755 373.017 53.8805 376.08 46.4862C377.152 43.8989 378.222 41.3112 379.293 38.7234C383.131 29.4538 387.019 20.2093 391 11C392.124 14.3732 391.857 15.6186 391.123 19.0334C390.796 20.5822 390.796 20.5822 390.462 22.1622C390.217 23.2856 389.972 24.409 389.719 25.5664C389.346 27.3196 389.346 27.3196 388.965 29.1083C388.29 32.2721 387.609 35.4343 386.924 38.5961C386.216 41.8803 385.516 45.1663 384.815 48.4524C383.71 53.6391 382.601 58.8251 381.49 64.0107C379.698 72.3939 377.963 80.7879 376.25 89.1875C374.08 99.8011 371.867 110.405 369.626 121.004C368.077 128.334 366.537 135.667 365 143C364.798 143.963 364.596 144.926 364.388 145.918C363.104 152.048 361.827 158.181 360.559 164.315C360.146 166.308 359.731 168.301 359.313 170.294C358.733 173.066 358.161 175.839 357.59 178.613C357.413 179.45 357.237 180.286 357.055 181.148C356.659 183.09 356.323 185.044 356 187C356.33 187.33 356.66 187.66 357 188C364.609 179.09 364.609 179.09 372 170C375.529 165.547 379.182 161.213 382.863 156.887C385.78 153.454 388.657 149.994 391.5 146.5C395.248 141.895 399.07 137.36 402.914 132.836C406.559 128.54 410.128 124.186 413.684 119.816C416.278 116.662 418.916 113.548 421.562 110.438C424.767 106.669 427.927 102.878 431 99C434.528 94.5491 438.18 90.2168 441.859 85.8911C446.31 80.6512 450.661 75.3328 455 70C456.521 68.1456 458.041 66.2914 459.562 64.4375C463.748 59.3233 467.884 54.1703 472 49C472.33 49.66 472.66 50.32 473 51C472.082 53.0618 472.082 53.0618 470.598 55.6445C469.769 57.1026 469.769 57.1026 468.924 58.5901C468.309 59.6535 467.695 60.7169 467.062 61.8125C466.097 63.5091 465.132 65.2057 464.169 66.9032C463.491 68.0958 462.813 69.2879 462.134 70.4795C458.34 77.1398 454.635 83.8485 450.938 90.5625C450.262 91.7878 449.586 93.013 448.91 94.2383C444.04 103.075 439.231 111.945 434.437 120.823C431.204 126.802 427.925 132.75 424.577 138.665C414.699 156.119 405.047 173.703 395.367 191.268C391.922 197.518 388.472 203.765 385 210C392.685 205.145 400.31 200.201 407.908 195.21C411.101 193.112 414.297 191.017 417.492 188.922C418.453 188.292 418.453 188.292 419.432 187.649C425.241 183.84 431.056 180.043 436.875 176.25C437.802 175.646 438.729 175.042 439.683 174.419C441.534 173.213 443.384 172.008 445.235 170.802C460.278 160.999 475.314 151.184 490.34 141.355C494.308 138.76 498.277 136.166 502.246 133.573C504.566 132.059 506.885 130.544 509.204 129.029C510.81 127.98 512.416 126.932 514.023 125.883C521.043 121.297 528.03 116.663 535 112C535.66 112.33 536.32 112.66 537 113C535.003 115.024 533.003 117.044 531 119.062C530.17 119.905 530.17 119.905 529.324 120.764C526.36 123.744 523.346 126.602 520.156 129.34C515.359 133.485 510.945 137.984 506.5 142.5C497.546 151.597 497.546 151.597 493.031 155.469C488.088 159.712 483.569 164.362 479 169C473.818 174.26 468.629 179.393 463.023 184.199C459.002 187.778 455.275 191.665 451.5 195.5C442.546 204.597 442.546 204.597 438.035 208.465C433.069 212.728 428.528 217.402 423.938 222.062C418.466 227.616 413.013 233.031 407 238C407.775 237.779 408.55 237.557 409.348 237.329C412.94 236.303 416.533 235.276 420.125 234.25C421.343 233.902 422.561 233.554 423.816 233.195C426.3 232.486 428.784 231.776 431.268 231.067C433.72 230.366 436.172 229.662 438.623 228.956C447.104 226.517 455.614 224.212 464.156 221.996C471.784 219.974 479.309 217.686 486.844 215.344C501.555 210.777 516.356 206.546 531.174 202.34C534.665 201.348 538.154 200.354 541.645 199.359C547.93 197.569 554.217 195.78 560.505 193.997C562.935 193.304 565.362 192.602 567.787 191.894C569.017 191.536 570.247 191.178 571.515 190.81C573.167 190.325 573.167 190.325 574.852 189.83C577.892 189.029 580.892 188.463 584 188C580.455 190.923 576.502 192.868 572.402 194.879C571.66 195.247 570.918 195.616 570.153 195.995C568.568 196.781 566.983 197.565 565.397 198.348C561.285 200.378 557.18 202.421 553.074 204.465C552.274 204.863 551.473 205.261 550.648 205.672C544.161 208.906 537.72 212.221 531.336 215.655C526.843 218.063 522.3 220.364 517.739 222.638C517.036 222.989 516.333 223.341 515.609 223.702C513.406 224.802 511.203 225.901 509 227C507.662 227.668 506.324 228.335 504.987 229.003C502.308 230.339 499.629 231.676 496.951 233.012C491.695 235.633 486.441 238.257 481.186 240.881C477.228 242.857 473.27 244.833 469.311 246.807C465.42 248.747 461.531 250.688 457.643 252.631C456.186 253.359 454.729 254.085 453.272 254.811C442.761 260.048 432.358 265.466 422 271C440.601 272.092 459.216 272.381 477.842 272.707C482.326 272.786 486.81 272.869 491.294 272.951C499.751 273.106 508.208 273.258 516.664 273.408C526.307 273.58 535.949 273.755 545.592 273.931C565.394 274.291 585.197 274.647 605 275C602.049 277.951 598.543 277.878 594.562 278.438C592.833 278.695 591.104 278.953 589.375 279.211C588.486 279.341 587.596 279.471 586.68 279.604C582.469 280.226 578.266 280.894 574.062 281.562C573.267 281.688 572.472 281.814 571.652 281.943C566.351 282.78 561.054 283.642 555.762 284.535C553.828 284.861 551.893 285.181 549.957 285.496C548.94 285.662 547.923 285.829 546.875 286C545.986 286.144 545.096 286.289 544.18 286.438C541.641 286.887 539.126 287.384 536.602 287.906C528.927 289.455 521.182 290.605 513.45 291.823C505.598 293.061 497.782 294.377 490 296C480.269 297.906 470.524 299.587 460.727 301.105C453.25 302.266 445.782 303.48 438.312 304.688C436.894 304.917 435.476 305.146 434.058 305.375C430.706 305.916 427.353 306.458 424 307C432.003 310.422 440.223 313.098 448.504 315.743C452.635 317.062 456.761 318.395 460.887 319.727C461.734 320 462.58 320.273 463.453 320.554C471.882 323.277 480.287 326.066 488.688 328.875C489.419 329.119 490.15 329.363 490.903 329.615C496.269 331.408 501.635 333.204 507 335C513.853 337.294 520.707 339.586 527.562 341.875C528.425 342.163 529.288 342.451 530.177 342.748C548.698 348.929 567.262 354.979 585.836 360.996C589.897 362.313 593.952 363.643 598 365C598 365.33 598 365.66 598 366C589.945 365.38 581.981 364.342 573.987 363.188C556.892 360.728 539.764 358.561 522.625 356.438C505.991 354.375 489.364 352.288 472.754 350.043C463.006 348.726 453.253 347.446 443.5 346.168C441.388 345.891 439.275 345.613 437.163 345.335C434.209 344.945 431.255 344.558 428.301 344.172C427.405 344.053 426.51 343.935 425.588 343.813C424.762 343.705 423.937 343.598 423.087 343.487C422.367 343.393 421.647 343.298 420.905 343.201C418.822 342.948 418.822 342.948 416 343C417.018 343.715 418.037 344.431 419.086 345.168C426.72 350.54 434.325 355.948 441.875 361.438C448.136 365.986 454.472 370.405 460.875 374.75C467.022 378.922 473.025 383.2 478.934 387.703C484.789 392.089 490.805 396.251 496.794 400.452C500.368 402.96 503.934 405.481 507.5 408C511.736 410.992 515.973 413.982 520.215 416.965C528.356 422.694 536.451 428.483 544.511 434.327C550.943 438.98 557.447 443.519 564 448C563.01 448.495 563.01 448.495 562 449C559.778 448.121 557.685 447.18 555.543 446.133C554.892 445.823 554.241 445.513 553.571 445.193C552.17 444.525 550.77 443.853 549.372 443.179C545.721 441.418 542.058 439.681 538.395 437.945C537.669 437.601 536.943 437.257 536.196 436.902C529.566 433.768 522.858 430.842 516.075 428.055C510.78 425.855 505.676 423.361 500.561 420.771C493.736 417.333 486.78 414.199 479.812 411.062C477.643 410.082 475.474 409.101 473.306 408.119C471.808 407.441 470.309 406.763 468.811 406.086C461.346 402.709 453.897 399.296 446.449 395.883C430.338 388.5 414.185 381.217 398 374C398.384 374.512 398.768 375.023 399.163 375.55C401.512 378.681 403.86 381.813 406.203 384.949C411.327 391.804 416.518 398.602 421.747 405.376C427.62 412.987 433.473 420.613 439.312 428.25C439.861 428.967 440.409 429.684 440.974 430.423C443.727 434.024 446.478 437.626 449.227 441.23C454.802 448.537 460.407 455.818 466.062 463.062C470.933 469.303 475.72 475.599 480.45 481.946C485.962 489.322 491.632 496.574 497.303 503.828C500.208 507.547 503.104 511.274 506 515C505.67 515.66 505.34 516.32 505 517C504.34 516.67 503.68 516.34 503 516C503 515.34 503 514.68 503 514C502.466 513.785 501.933 513.569 501.383 513.348C498.121 511.503 495.573 509.002 492.875 506.438C491.713 505.348 490.55 504.26 489.387 503.172C488.814 502.634 488.24 502.096 487.65 501.541C481.921 496.19 476.032 491.014 470.117 485.871C467.61 483.655 465.151 481.39 462.688 479.125C458.967 475.725 455.175 472.473 451.25 469.312C447.483 466.273 444.016 463.131 440.648 459.66C436.651 455.634 432.236 452.044 427.906 448.383C420.832 442.384 413.951 436.23 407.196 429.872C403.489 426.383 399.745 422.959 395.887 419.637C393.563 417.621 391.283 415.562 389 413.5C383.109 408.189 377.215 402.931 371 398C375.534 410.425 380.182 422.804 384.915 435.155C387.331 441.488 389.666 447.841 391.902 454.238C395.11 463.407 398.542 472.486 402 481.562C403.188 484.689 404.375 487.815 405.562 490.941C405.851 491.7 406.139 492.459 406.436 493.241C414.759 515.159 414.759 515.159 417.875 524.188C420.178 530.795 422.623 537.341 425.125 543.875C425.466 544.769 425.808 545.663 426.159 546.584C427.573 550.284 428.993 553.982 430.434 557.672C430.806 558.646 431.179 559.621 431.562 560.625C432.028 561.82 432.028 561.82 432.504 563.039C433 565 433 565 432 568C422.928 553.138 413.928 538.236 405.062 523.25C400.077 514.824 395.084 506.411 389.838 498.143C385.589 491.415 381.523 484.578 377.438 477.75C371.367 467.604 365.27 457.476 359.125 447.375C352.374 436.276 345.667 425.15 339 414C338.875 422.677 339.262 431.245 339.879 439.898C340.068 442.657 340.252 445.416 340.434 448.175C340.481 448.891 340.529 449.607 340.578 450.344C341.12 458.655 341.546 466.971 341.965 475.289C342.004 476.068 342.044 476.847 342.084 477.649C342.287 481.66 342.489 485.671 342.69 489.683C343.957 514.972 345.25 540.252 347.136 565.504C347.859 575.362 348.153 585.113 348 595C345.629 592.629 345.455 591.38 344.751 588.141C344.525 587.125 344.299 586.11 344.067 585.063C343.825 583.952 343.584 582.84 343.336 581.695C341.181 572.071 338.916 562.486 336.477 552.93C336.016 551.125 336.016 551.125 335.547 549.283C334.742 546.133 333.935 542.984 333.127 539.835C331.726 534.367 330.333 528.896 328.94 523.426C328.578 522.008 328.217 520.589 327.855 519.17C323.602 502.481 319.421 485.773 315.25 469.062C314.909 467.696 314.568 466.329 314.226 464.962C313.894 463.63 313.561 462.298 313.229 460.966C312.91 459.688 312.591 458.41 312.262 457.093C311.65 454.639 311.039 452.185 310.43 449.731C309.196 444.766 307.957 439.804 306.662 434.855C306.47 434.112 306.277 433.369 306.079 432.604C305.598 430.756 305.11 428.91 304.62 427.064C303.992 423.958 303.882 421.16 304 418C303.34 418 302.68 418 302 418C301.858 419.547 301.858 419.547 301.714 421.125C300.906 427.54 299.175 433.753 297.578 440.008C297.232 441.378 296.887 442.749 296.542 444.12C295.634 447.726 294.721 451.331 293.806 454.935C292.182 461.333 290.566 467.732 288.953 474.133C288.779 474.821 288.606 475.51 288.427 476.219C286.009 485.811 283.692 495.42 281.572 505.082C280.409 510.361 279.063 515.558 277.562 520.75C275.591 527.665 273.896 534.611 272.312 541.625C269.593 553.67 266.632 565.649 263.625 577.625C263.396 578.537 263.167 579.45 262.931 580.389C261.624 585.594 260.313 590.797 259 596C258.67 596 258.34 596 258 596C257.916 586.428 258.113 576.944 258.699 567.387C258.815 565.404 258.931 563.422 259.046 561.439C259.171 559.321 259.297 557.203 259.424 555.086C259.694 550.596 259.956 546.107 260.218 541.617C260.263 540.841 260.308 540.065 260.355 539.266C260.448 537.664 260.541 536.062 260.634 534.46C260.779 531.977 260.924 529.495 261.07 527.012C262.217 507.39 263.317 487.765 264.411 468.14C264.692 463.098 264.975 458.056 265.259 453.014C265.473 449.211 265.685 445.408 265.897 441.604C265.996 439.828 266.095 438.052 266.196 436.276C266.334 433.833 266.469 431.389 266.604 428.946C266.645 428.239 266.685 427.532 266.727 426.804C266.96 422.531 267.035 418.279 267 414C255.788 432.336 255.788 432.336 244.812 450.812C239.318 460.224 233.622 469.512 227.943 478.813C224.516 484.433 221.102 490.06 217.688 495.688C216.242 498.069 214.797 500.451 213.352 502.832C212.991 503.426 212.631 504.019 212.26 504.631C209.767 508.738 207.271 512.844 204.773 516.949C194.448 533.926 184.206 550.951 174 568C172.565 563.694 174.361 560.675 175.938 556.625C176.255 555.788 176.572 554.951 176.898 554.088C177.923 551.389 178.961 548.694 180 546C181.023 543.331 182.043 540.66 183.063 537.99C183.699 536.325 184.339 534.661 184.982 532.999C187.02 527.7 188.935 522.366 190.809 517.008C194.319 506.987 198.105 497.075 201.896 487.157C204.973 479.096 208.02 471.031 210.859 462.883C215.165 450.536 219.862 438.331 224.488 426.102C225.687 422.931 226.883 419.758 228.078 416.586C228.625 415.145 228.625 415.145 229.183 413.675C231.009 408.824 232.668 404.01 234 399C229.754 402.689 225.541 406.408 221.375 410.188C217.395 413.785 213.339 417.279 209.25 420.75C203.64 425.519 198.211 430.453 192.838 435.486C189.258 438.839 185.635 442.123 181.922 445.328C179.589 447.358 177.295 449.428 175 451.5C171.392 454.756 167.757 457.976 164.086 461.16C162.492 462.566 160.917 463.995 159.352 465.434C158.452 466.26 157.552 467.086 156.625 467.938C155.376 469.096 155.376 469.096 154.102 470.277C152 472 152 472 150 472C150 472.66 150 473.32 150 474C148.362 475.454 146.663 476.838 144.938 478.188C141.625 480.834 138.434 483.437 135.5 486.5C132.83 489.265 130.004 491.664 127 494.062C121.366 498.576 116.145 503.468 110.951 508.479C110.337 509.065 109.723 509.65 109.09 510.254C108.268 511.048 108.268 511.048 107.429 511.858C106 513 106 513 104 513C104 513.66 104 514.32 104 515C102.708 516.373 101.376 517.71 100 519C99.34 518.67 98.68 518.34 98 518C98.5827 517.247 99.1653 516.494 99.7656 515.719C104.476 509.619 109.142 503.49 113.75 497.312C119.86 489.131 126.133 481.081 132.416 473.032C137.55 466.445 142.624 459.812 147.68 453.164C149.036 451.38 150.393 449.596 151.75 447.812C152.778 446.461 152.778 446.461 153.827 445.082C158.265 439.255 162.741 433.46 167.25 427.688C172.059 421.53 176.782 415.317 181.451 409.053C188.128 400.117 195.025 391.35 201.904 382.57C202.527 381.772 203.151 380.974 203.793 380.152C204.359 379.429 204.925 378.706 205.509 377.961C206.733 376.351 207.878 374.682 209 373C207.805 373.564 207.805 373.564 206.586 374.139C187.91 382.943 169.172 391.597 150.364 400.115C142.255 403.788 134.158 407.486 126.062 411.188C125.324 411.525 124.585 411.863 123.823 412.211C113.48 416.94 103.149 421.696 92.8274 426.473C86.6526 429.327 80.4674 432.157 74.2734 434.969C73.5248 435.309 72.7763 435.648 72.005 435.999C68.3166 437.673 64.6273 439.344 60.937 441.014C59.5882 441.625 58.2394 442.236 56.8906 442.848C55.705 443.384 54.5194 443.92 53.2979 444.473C51.0667 445.506 48.8648 446.604 46.6943 447.76C45.3606 448.374 45.3606 448.374 44 449C43.34 448.67 42.68 448.34 42 448C52.1113 440.649 62.2743 433.382 72.532 426.236C78.0849 422.36 83.5869 418.422 89.0625 414.438C95.1995 409.974 101.409 405.637 107.688 401.375C114.035 397.066 120.282 392.656 126.445 388.089C131.724 384.181 137.082 380.393 142.458 376.619C147.632 372.98 152.759 369.282 157.875 365.562C165.097 360.317 172.421 355.235 179.808 350.225C180.56 349.715 181.311 349.205 182.086 348.68C182.746 348.234 183.407 347.787 184.087 347.328C186.097 345.933 188.052 344.479 190 343C183.722 343.385 177.51 343.834 171.312 344.938C166.474 345.795 161.634 346.417 156.75 346.938C142.042 348.51 127.357 350.321 112.723 352.473C107.779 353.173 102.827 353.802 97.875 354.438C90.6498 355.365 83.4467 356.373 76.25 357.5C67.3707 358.881 58.4646 359.853 49.5298 360.798C39.8666 361.846 30.2693 363.223 20.6677 364.73C19.6043 364.895 18.5409 365.06 17.4453 365.23C16.0456 365.453 16.0456 365.453 14.6177 365.68C12.0489 365.994 9.58482 366.058 7 366C9.73735 364.175 11.7338 363.31 14.8181 362.311C16.2974 361.828 16.2974 361.828 17.8066 361.335C18.8798 360.99 19.9529 360.645 21.0586 360.289C22.1764 359.925 23.2943 359.561 24.446 359.187C26.8522 358.404 29.2591 357.623 31.6666 356.845C35.4716 355.614 39.275 354.378 43.0776 353.14C43.709 352.935 44.3403 352.729 44.9907 352.517C46.2621 352.103 47.5335 351.689 48.8049 351.275C50.7074 350.656 52.6101 350.037 54.5129 349.419C63.8987 346.365 73.2678 343.265 82.625 340.125C101.256 333.88 119.933 327.778 138.608 321.667C152.418 317.148 166.224 312.62 180 308C180 307.67 180 307.34 180 307C162.247 303.688 144.48 300.542 126.646 297.697C112.409 295.424 98.2063 292.973 84.0115 290.448C76.1393 289.05 68.2642 287.71 60.3633 286.484C50.9603 285.025 41.6115 283.319 32.2625 281.55C30.2135 281.163 28.1637 280.781 26.1133 280.402C25.4512 280.28 24.7891 280.157 24.107 280.031C18.4448 279.016 12.7591 278.302 7.03473 277.737C2.2137 277.214 2.21371 277.214 0 275C0.572735 274.991 1.14547 274.981 1.73557 274.972C15.9128 274.739 30.0901 274.505 44.2673 274.27C51.1243 274.156 57.9813 274.042 64.8384 273.93C102.834 273.312 102.834 273.312 140.827 272.556C142.61 272.517 144.393 272.479 146.177 272.442C158.797 272.177 171.394 271.649 184 271C183.107 270.556 182.213 270.112 181.293 269.655C178.27 268.152 175.248 266.647 172.226 265.141C170.902 264.481 169.576 263.821 168.251 263.163C161.422 259.771 154.618 256.345 147.887 252.764C132.797 244.736 117.468 237.178 102.173 229.552C98.1961 227.569 94.2202 225.583 90.2441 223.598C82.4972 219.729 74.749 215.864 67 212C69.9467 209.022 72.824 206.249 76.1875 203.75C80.6872 200.33 84.812 196.586 88.9336 192.723C91 191 91 191 93 191C93.2062 190.443 93.4125 189.886 93.625 189.312C95.129 186.783 96.9053 185.461 99.1797 183.648C102.806 180.365 105.716 176.424 108.736 172.592C110.032 170.959 111.35 169.346 112.672 167.734C134.321 141.109 146.523 110.679 156 78C156.66 78 157.32 78 158 78C159.784 80.1112 161.464 82.2329 163.125 84.4375C166.937 89.3988 170.843 94.174 175.051 98.8086C178.009 102.134 180.787 105.602 183.59 109.059C186.146 112.178 188.755 115.246 191.375 118.312C195.245 122.849 198.971 127.475 202.625 132.188C206.519 137.207 210.594 141.971 214.895 146.652C217.684 149.763 220.254 153.024 222.84 156.305C225.318 159.397 227.869 162.42 230.438 165.438C234.701 170.448 238.896 175.508 243.051 180.609C245.346 183.424 247.667 186.216 250 189C245.54 164.021 245.54 164.021 239.992 139.27C238.978 135.058 238.149 130.813 237.31 126.564C235.325 116.548 233.212 106.558 231.125 96.5625C230.699 94.5215 230.273 92.4805 229.848 90.4395C229.208 87.3748 228.569 84.3103 227.929 81.2458C226.85 76.0781 225.773 70.91 224.702 65.7407C222.822 56.6778 220.932 47.6183 218.945 38.5781C218.489 36.4888 218.033 34.3995 217.577 32.3101C217.268 30.9003 216.955 29.4911 216.641 28.0825C216.172 25.9786 215.714 23.8725 215.258 21.7656C214.991 20.5568 214.724 19.348 214.45 18.1025C214.038 15.2593 214.025 13.6577 215 11C219.158 20.7752 223.26 30.5673 227.188 40.4375C230.763 49.4163 234.397 58.3561 238.281 67.207C242.584 77.0203 246.787 86.8308 250.595 96.8474C252.682 102.295 255.057 107.561 257.551 112.836C259.332 116.724 260.91 120.677 262.476 124.657C264.844 130.658 267.323 136.611 269.812 142.562C271.105 145.661 272.397 148.759 273.689 151.857C274.569 153.966 275.449 156.074 276.331 158.182C277.601 161.223 278.864 164.267 280.125 167.312C280.515 168.243 280.906 169.174 281.308 170.133C281.663 170.993 282.017 171.853 282.383 172.738C282.696 173.491 283.01 174.245 283.333 175.021C284 177 284 177 284 180C284.66 180 285.32 180 286 180C285.954 178.962 285.954 178.962 285.908 177.902C285.64 166.012 287.002 154.288 288.221 142.476C288.634 138.475 289.039 134.473 289.441 130.471C289.544 129.448 289.544 129.448 289.649 128.403C289.789 127.009 289.929 125.615 290.069 124.221C290.283 122.096 290.497 119.972 290.712 117.847C292.177 103.339 293.562 88.8235 294.936 74.3063C295.249 71.0043 295.562 67.7023 295.876 64.4004C296.357 59.3301 296.838 54.2598 297.318 49.1895C298.246 39.4025 299.178 29.6161 300.111 19.8297C300.52 15.544 300.928 11.2583 301.336 6.97266C301.467 5.60034 301.597 4.22803 301.728 2.85571C301.818 1.91333 301.908 0.970942 302 0Z" fill="#F9E6F0"/>
<path d="M153 88C156.23 90.9501 158.196 93.8375 160.215 97.707C160.812 98.8392 161.409 99.9713 162.024 101.138C162.336 101.736 162.647 102.335 162.968 102.952C164.626 106.134 166.308 109.303 167.988 112.473C168.327 113.113 168.666 113.754 169.016 114.414C172.114 120.253 175.346 126.011 178.625 131.75C183.016 139.449 187.301 147.195 191.5 155C196.304 163.925 201.228 172.774 206.237 181.586C211.587 191.005 216.807 200.494 222 210C218.02 210 215.899 208.131 212.75 205.938C211.392 205.012 210.032 204.087 208.672 203.164C207.926 202.656 207.18 202.149 206.412 201.626C201.976 198.636 197.485 195.728 193 192.812C191.006 191.514 189.013 190.216 187.02 188.918C186.02 188.267 185.021 187.617 183.991 186.947C180.161 184.454 176.333 181.959 172.506 179.463C170.629 178.239 168.752 177.016 166.875 175.793C162.169 172.727 157.468 169.653 152.778 166.564C150.409 165.004 148.039 163.446 145.668 161.889C143.978 160.777 142.29 159.661 140.602 158.545C139.567 157.865 138.532 157.185 137.465 156.484C136.553 155.883 135.642 155.282 134.703 154.663C131.876 152.924 128.988 151.441 126 150C126.461 149.233 126.923 148.466 127.398 147.676C138.591 128.631 146.439 109.085 153 88Z" fill="white"/>
<path d="M118 161C121.4 162.466 123.575 164.353 126.152 166.992C126.929 167.78 127.706 168.567 128.506 169.379C129.308 170.203 130.111 171.026 130.938 171.875C132.528 173.5 134.12 175.122 135.715 176.742C136.417 177.463 137.12 178.183 137.844 178.925C140.119 181.115 142.521 183.046 145 185C146.691 186.642 148.353 188.314 150 190C152.995 193.025 155.998 196.044 159 199.062C159.794 199.865 160.588 200.667 161.406 201.494C164.537 204.638 167.586 207.671 171.062 210.434C171.702 210.951 172.341 211.467 173 212C173 212.66 173 213.32 173 214C173.573 214.247 174.146 214.494 174.736 214.748C177.363 216.2 179.117 217.89 181.223 220.027C182.008 220.819 182.794 221.612 183.604 222.428C184.415 223.256 185.226 224.084 186.062 224.938C186.878 225.762 187.693 226.586 188.533 227.436C190.048 228.968 191.561 230.502 193.071 232.039C194.706 233.701 196.348 235.354 198 237C194.68 238.106 192.661 237.878 189.328 236.895C188.399 236.627 187.47 236.358 186.512 236.082C185.507 235.78 184.501 235.479 183.465 235.168C182.411 234.861 181.357 234.553 180.271 234.237C176.823 233.229 173.381 232.208 169.938 231.188C167.562 230.491 165.187 229.796 162.812 229.102C158.07 227.715 153.33 226.325 148.591 224.931C140.697 222.614 132.788 220.35 124.874 218.103C114.284 215.095 103.7 212.064 93.125 209C92.1553 208.721 91.1856 208.442 90.1865 208.154C86.0356 206.947 81.9719 205.728 78 204C81.7986 198.777 86.7551 193.082 93 191C93.2681 190.423 93.5362 189.845 93.8125 189.25C95.1754 186.668 96.9129 185.453 99.168 183.664C103.281 179.928 106.561 175.346 110 171C111.52 169.104 113.041 167.208 114.562 165.312C115.709 163.876 116.855 162.438 118 161Z" fill="white"/>
</svg>
