<svg width="36" height="37" viewBox="0 0 36 37" fill="none" xmlns="http://www.w3.org/2000/svg">
<rect y="0.528076" width="36" height="36" rx="4" fill="#F3F3F3"/>
<path d="M17.9894 11.559C16.1499 11.559 14.3857 12.2897 13.0849 13.5905C11.7842 14.8912 11.0534 16.6554 11.0534 18.495C11.0534 20.3345 11.7842 22.0987 13.0849 23.3995C14.3857 24.7002 16.1499 25.431 17.9894 25.431C19.8289 25.431 21.5931 24.7002 22.8939 23.3995C24.1946 22.0987 24.9254 20.3345 24.9254 18.495C24.9254 16.6554 24.1946 14.8912 22.8939 13.5905C21.5931 12.2897 19.8289 11.559 17.9894 11.559ZM17.9894 22.9995C16.7943 22.9995 15.6482 22.5247 14.8032 21.6797C13.9581 20.8347 13.4834 19.6885 13.4834 18.4935C13.4834 17.2984 13.9581 16.1523 14.8032 15.3073C15.6482 14.4622 16.7943 13.9875 17.9894 13.9875C19.1845 13.9875 20.3306 14.4622 21.1756 15.3073C22.0207 16.1523 22.4954 17.2984 22.4954 18.4935C22.4954 19.6885 22.0207 20.8347 21.1756 21.6797C20.3306 22.5247 19.1845 22.9995 17.9894 22.9995Z" fill="#343434"/>
<path d="M25.1999 12.921C26.0929 12.921 26.8169 12.197 26.8169 11.304C26.8169 10.4109 26.0929 9.68698 25.1999 9.68698C24.3069 9.68698 23.5829 10.4109 23.5829 11.304C23.5829 12.197 24.3069 12.921 25.1999 12.921Z" fill="#343434"/>
<path d="M30.7904 9.65998C30.4432 8.76325 29.9125 7.9489 29.2324 7.26906C28.5523 6.58923 27.7378 6.05888 26.8409 5.71198C25.7914 5.31801 24.6827 5.10499 23.5619 5.08198C22.1174 5.01898 21.6599 5.00098 17.9969 5.00098C14.3339 5.00098 13.8644 5.00098 12.4319 5.08198C11.312 5.10381 10.204 5.31688 9.1559 5.71198C8.2588 6.05848 7.44404 6.58868 6.7639 7.26857C6.08375 7.94846 5.55324 8.76301 5.2064 9.65998C4.81235 10.7094 4.59982 11.8182 4.5779 12.939C4.5134 14.382 4.4939 14.8395 4.4939 18.504C4.4939 22.167 4.4939 22.6335 4.5779 24.069C4.6004 25.191 4.8119 26.298 5.2064 27.3495C5.55421 28.2461 6.08524 29.0603 6.76555 29.7401C7.44586 30.4199 8.26049 30.9503 9.1574 31.2975C10.2035 31.7073 11.312 31.9355 12.4349 31.9725C13.8794 32.0355 14.3369 32.055 17.9999 32.055C21.6629 32.055 22.1324 32.055 23.5649 31.9725C24.6856 31.9497 25.7942 31.7372 26.8439 31.344C27.7405 30.9963 28.5548 30.4655 29.2349 29.7854C29.9149 29.1054 30.4457 28.2911 30.7934 27.3945C31.1879 26.3445 31.3994 25.2375 31.4219 24.1155C31.4864 22.6725 31.5059 22.215 31.5059 18.5505C31.5059 14.886 31.5059 14.421 31.4219 12.9855C31.4044 11.8489 31.1908 10.7238 30.7904 9.65998ZM28.9634 23.958C28.9537 24.8224 28.7959 25.6788 28.4969 26.49C28.2716 27.0733 27.9268 27.603 27.4845 28.045C27.0422 28.487 26.5123 28.8316 25.9289 29.0565C25.1267 29.3541 24.2794 29.5119 23.4239 29.523C21.9989 29.589 21.5969 29.6055 17.9429 29.6055C14.2859 29.6055 13.9124 29.6055 12.4604 29.523C11.6053 29.5125 10.7584 29.3547 9.9569 29.0565C9.37143 28.833 8.8394 28.489 8.39523 28.0469C7.95106 27.6048 7.60465 27.0744 7.3784 26.49C7.08357 25.6876 6.92586 24.8412 6.9119 23.9865C6.8474 22.5615 6.8324 22.1595 6.8324 18.5055C6.8324 14.85 6.8324 14.4765 6.9119 13.023C6.92159 12.159 7.07938 11.3031 7.3784 10.4925C7.8359 9.30898 8.7734 8.37748 9.9569 7.92448C10.7588 7.62769 11.6054 7.46992 12.4604 7.45798C13.8869 7.39348 14.2874 7.37548 17.9429 7.37548C21.5984 7.37548 21.9734 7.37548 23.4239 7.45798C24.2795 7.46827 25.1269 7.62608 25.9289 7.92448C26.5123 8.14989 27.0421 8.49478 27.4844 8.93702C27.9266 9.37926 28.2715 9.90908 28.4969 10.4925C28.7917 11.2949 28.9494 12.1412 28.9634 12.996C29.0279 14.4225 29.0444 14.823 29.0444 18.4785C29.0444 22.1325 29.0444 22.5255 28.9799 23.9595H28.9634V23.958Z" fill="#343434"/>
</svg>
