<svg width="36" height="37" viewBox="0 0 36 37" fill="none" xmlns="http://www.w3.org/2000/svg">
<rect y="0.528076" width="36" height="36" rx="4" fill="#F3F3F3"/>
<path fill-rule="evenodd" clip-rule="evenodd" d="M14.5292 14.5878H19.543V16.9928C20.2653 15.6096 22.1175 14.3668 24.8999 14.3668C30.2337 14.3668 31.5 17.1202 31.5 22.172V31.5281H26.1V23.3225C26.1 20.4456 25.3778 18.8232 23.5391 18.8232C20.9889 18.8232 19.9292 20.5717 19.9292 23.3212V31.5281H14.5292V14.5878ZM5.2695 31.3071H10.6695V14.3668H5.2695V31.3071ZM11.4431 8.84308C11.4433 9.27893 11.3535 9.71048 11.179 10.1126C11.0045 10.5148 10.7487 10.8795 10.4265 11.1857C10.1034 11.4952 9.72005 11.7404 9.29847 11.9073C8.87689 12.0741 8.4253 12.1594 7.9695 12.1581C7.05096 12.1561 6.16983 11.8074 5.5152 11.187C5.1943 10.8797 4.93947 10.5145 4.76527 10.1124C4.59107 9.71017 4.50093 9.27885 4.5 8.84308C4.5 7.96298 4.8645 7.12058 5.51655 6.49918C6.16955 5.87632 7.05174 5.52726 7.97085 5.52808C8.89155 5.52808 9.77445 5.87778 10.4265 6.49918C11.0785 7.12058 11.4431 7.96298 11.4431 8.84308Z" fill="#343434"/>
</svg>
