<svg width="36" height="37" viewBox="0 0 36 37" fill="none" xmlns="http://www.w3.org/2000/svg">
<rect y="0.528076" width="36" height="36" rx="4" fill="#F3F3F3"/>
<path d="M11.6982 9.12524C12.5817 9.12524 13.3767 9.20174 14.1057 9.35774C14.8302 9.51224 15.4482 9.76724 15.9702 10.1197C16.4847 10.4722 16.8867 10.9402 17.1762 11.5282C17.4567 12.1087 17.5962 12.8347 17.5962 13.6927C17.5962 14.6227 17.3862 15.3997 16.9647 16.0192C16.5402 16.6402 15.9147 17.1487 15.0807 17.5417C16.2162 17.8702 17.0577 18.4447 17.6157 19.2607C18.1767 20.0842 18.4512 21.0697 18.4512 22.2247C18.4512 23.1622 18.2727 23.9677 17.9142 24.6442C17.5687 25.3107 17.0675 25.8839 16.4532 26.3152C15.8168 26.7584 15.106 27.0835 14.3547 27.2752C13.5669 27.482 12.7556 27.5859 11.9412 27.5842H2.99365V9.12524H11.6982ZM11.1717 16.5832C11.8917 16.5832 12.4887 16.4122 12.9597 16.0657C13.4277 15.7237 13.6542 15.1597 13.6542 14.3872C13.6542 13.9582 13.5777 13.6042 13.4277 13.3267C13.2815 13.0598 13.0652 12.8378 12.8022 12.6847C12.5268 12.5214 12.2229 12.412 11.9067 12.3622C11.5619 12.298 11.2118 12.2673 10.8612 12.2707H7.05865V16.5832H11.1717ZM11.3982 24.4417C11.7987 24.4417 12.1797 24.4072 12.5382 24.3262C12.8997 24.2482 13.2207 24.1222 13.4937 23.9347C13.7667 23.7547 13.9917 23.5102 14.1537 23.1982C14.3172 22.8892 14.3967 22.4857 14.3967 22.0012C14.3967 21.0502 14.1282 20.3737 13.5972 19.9642C13.0647 19.5592 12.3507 19.3582 11.4762 19.3582H7.05865V24.4432H11.3982V24.4417ZM24.2457 24.3802C24.7962 24.9172 25.5897 25.1872 26.6217 25.1872C27.3612 25.1872 28.0002 24.9997 28.5387 24.6277C29.0697 24.2542 29.3937 23.8552 29.5182 23.4427H32.7507C32.2317 25.0507 31.4442 26.1997 30.3672 26.8912C29.3037 27.5857 28.0092 27.9307 26.4972 27.9307C25.4442 27.9307 24.4962 27.7612 23.6472 27.4252C22.8322 27.1079 22.0958 26.6176 21.4887 25.9882C20.8915 25.3442 20.4299 24.5867 20.1312 23.7607C19.8028 22.8474 19.6403 21.8828 19.6512 20.9122C19.6512 19.9132 19.8177 18.9787 20.1447 18.1162C20.4551 17.2825 20.9317 16.5206 21.5457 15.8767C22.1532 15.2467 22.8732 14.7502 23.7117 14.3857C24.5934 14.0149 25.5422 13.8301 26.4987 13.8427C27.6297 13.8427 28.6182 14.0617 29.4672 14.5027C30.2905 14.9237 31.0044 15.5308 31.5522 16.2757C32.0967 17.0152 32.4852 17.8627 32.7267 18.8122C32.9682 19.7602 33.0522 20.7502 32.9832 21.7867H23.3367C23.3382 22.8427 23.6937 23.8432 24.2457 24.3802ZM28.4637 17.3587C28.0272 16.8757 27.2892 16.6147 26.3862 16.6147C25.7997 16.6147 25.3152 16.7122 24.9252 16.9132C24.5686 17.0934 24.2522 17.3439 23.9952 17.6497C23.7694 17.9274 23.6021 18.2478 23.5032 18.5917C23.4166 18.8785 23.3608 19.1737 23.3367 19.4722H29.3097C29.2227 18.5362 28.9017 17.8447 28.4637 17.3587ZM22.5867 10.3642H30.0702V12.1867H22.5867V10.3642Z" fill="#343434"/>
</svg>
