<svg width="1713" height="1203" viewBox="0 0 1713 1203" fill="none" xmlns="http://www.w3.org/2000/svg">
<g clip-path="url(#clip0_6078_1451)">
<rect width="402" height="874" fill="#F3F3F3"/>
<rect x="24" y="71" width="128" height="16" fill="#D9D9D9"/>
<circle cx="363" cy="79" r="15" fill="#D9D9D9"/>
<rect width="355" height="96" transform="translate(23 122)" fill="#FAFAFA"/>
<rect x="43" y="134" width="109" height="10" fill="#D9D9D9"/>
<rect x="43" y="163" width="109" height="10" fill="#D9D9D9"/>
<rect x="43" y="192" width="109" height="14" fill="#D9D9D9"/>
<rect x="279" y="134" width="86" height="24" rx="4" fill="#3A3A3A" fill-opacity="0.1"/>
<rect x="296" y="141" width="52" height="10" fill="#D9D9D9"/>
<rect x="350" y="177" width="15" height="10" fill="#D9D9D9"/>
<rect width="355" height="96" transform="translate(23 238)" fill="#FAFAFA"/>
<rect x="43" y="250" width="109" height="10" fill="#D9D9D9"/>
<rect x="43" y="279" width="109" height="10" fill="#D9D9D9"/>
<rect x="43" y="308" width="109" height="14" fill="#D9D9D9"/>
<rect x="279" y="250" width="86" height="24" rx="4" fill="#3A3A3A" fill-opacity="0.1"/>
<rect x="296" y="257" width="52" height="10" fill="#D9D9D9"/>
<rect x="350" y="293" width="15" height="10" fill="#D9D9D9"/>
<rect width="355" height="96" transform="translate(23 354)" fill="#FAFAFA"/>
<rect x="43" y="366" width="109" height="10" fill="#D9D9D9"/>
<rect x="43" y="395" width="109" height="10" fill="#D9D9D9"/>
<rect x="43" y="424" width="109" height="14" fill="#D9D9D9"/>
<rect x="279" y="366" width="86" height="24" rx="4" fill="#3A3A3A" fill-opacity="0.1"/>
<rect x="296" y="373" width="52" height="10" fill="#D9D9D9"/>
<rect x="350" y="409" width="15" height="10" fill="#D9D9D9"/>
<rect width="355" height="96" transform="translate(23 470)" fill="#FAFAFA"/>
<rect x="43" y="482" width="109" height="10" fill="#D9D9D9"/>
<rect x="43" y="511" width="109" height="10" fill="#D9D9D9"/>
<rect x="43" y="540" width="109" height="14" fill="#D9D9D9"/>
<rect x="279" y="482" width="86" height="24" rx="4" fill="#3A3A3A" fill-opacity="0.1"/>
<rect x="296" y="489" width="52" height="10" fill="#D9D9D9"/>
<rect x="350" y="525" width="15" height="10" fill="#D9D9D9"/>
</g>
<g clip-path="url(#clip1_6078_1451)">
<rect width="402" height="874" transform="translate(437)" fill="white"/>
<rect width="30" height="30" rx="6" transform="matrix(-1 0 0 1 491 64)" fill="#3A3A3A"/>
<rect x="468.218" y="74" width="15" height="10" fill="#D9D9D9"/>
<rect x="504" y="71" width="128" height="16" fill="#D9D9D9"/>
<rect x="464.218" y="128" width="224" height="14" fill="#D9D9D9"/>
<circle cx="800" cy="79" r="15" fill="#D9D9D9"/>
<rect x="461" y="171" width="109" height="10" fill="#D9D9D9"/>
<rect x="461" y="185" width="354" height="40" rx="6" fill="#F5F5F5"/>
<rect x="477" y="200" width="109" height="10" fill="#D9D9D9"/>
<rect x="790" y="200" width="15" height="10" fill="#D9D9D9"/>
<rect x="461" y="247" width="109" height="10" fill="#D9D9D9"/>
<rect x="461" y="261" width="354" height="94" rx="6" fill="#F5F5F5"/>
<rect x="477" y="271" width="109" height="10" fill="#D9D9D9"/>
<rect x="790" y="271" width="15" height="10" fill="#D9D9D9"/>
<rect x="461" y="379" width="354" height="50" rx="4" fill="#3A3A3A"/>
<rect x="583.5" y="399" width="109" height="10" fill="#D9D9D9"/>
</g>
<g clip-path="url(#clip2_6078_1451)">
<rect width="402" height="874" transform="translate(874)" fill="#F3F3F3"/>
<rect width="30" height="30" rx="6" transform="matrix(-1 0 0 1 928 64)" fill="#3A3A3A"/>
<rect x="905.218" y="74" width="15" height="10" fill="#D9D9D9"/>
<rect x="941" y="71" width="128" height="16" fill="#D9D9D9"/>
<circle cx="1237" cy="79" r="15" fill="#D9D9D9"/>
<rect width="355" height="143" transform="translate(897.218 122)" fill="#FAFAFA"/>
<rect x="917.218" y="134" width="109" height="10" fill="#D9D9D9"/>
<rect x="917.218" y="167.668" width="109" height="10" fill="#D9D9D9"/>
<rect x="917.218" y="201.332" width="109" height="14" fill="#D9D9D9"/>
<rect x="917.218" y="239" width="109" height="14" fill="#D9D9D9"/>
<rect x="1153.22" y="134" width="86" height="24" rx="4" fill="#3A3A3A" fill-opacity="0.1"/>
<rect x="1170.22" y="141" width="52" height="10" fill="#D9D9D9"/>
<rect x="1224.22" y="177" width="15" height="10" fill="#D9D9D9"/>
<rect x="898" y="301" width="109" height="10" fill="#D9D9D9"/>
<rect x="1143" y="301" width="109" height="10" fill="#D9D9D9"/>
<rect x="898.5" y="348.5" width="353" height="49" rx="3.5" fill="#3A3A3A" fill-opacity="0.1"/>
<rect x="898.5" y="348.5" width="353" height="49" rx="3.5" stroke="#3A3A3A"/>
<rect x="1020.5" y="368" width="109" height="10" fill="#D9D9D9"/>
</g>
<g clip-path="url(#clip3_6078_1451)">
<rect width="402" height="874" transform="translate(1311)" fill="white"/>
<rect width="30" height="30" rx="6" transform="matrix(-1 0 0 1 1365 64)" fill="#3A3A3A"/>
<rect x="1342.22" y="74" width="15" height="10" fill="#D9D9D9"/>
<rect x="1378" y="71" width="128" height="16" fill="#D9D9D9"/>
<rect x="1338.22" y="128" width="224" height="14" fill="#D9D9D9"/>
<circle cx="1674" cy="79" r="15" fill="#D9D9D9"/>
<rect x="1335" y="171" width="109" height="10" fill="#D9D9D9"/>
<rect x="1335" y="185" width="354" height="40" rx="6" fill="#F5F5F5"/>
<rect x="1351" y="200" width="109" height="10" fill="#D9D9D9"/>
<rect x="1664" y="200" width="15" height="10" fill="#D9D9D9"/>
<rect x="1335" y="247" width="109" height="10" fill="#D9D9D9"/>
<rect x="1335" y="261" width="354" height="94" rx="6" fill="#F5F5F5"/>
<rect x="1351" y="271" width="109" height="10" fill="#D9D9D9"/>
<rect x="1664" y="271" width="15" height="10" fill="#D9D9D9"/>
<rect x="1335" y="377" width="109" height="10" fill="#D9D9D9"/>
<rect x="1335" y="391" width="354" height="94" rx="6" fill="#F5F5F5"/>
<rect x="1351" y="401" width="109" height="10" fill="#D9D9D9"/>
<rect x="1664" y="401" width="15" height="10" fill="#D9D9D9"/>
<rect x="1335" y="507" width="109" height="10" fill="#D9D9D9"/>
<rect x="1335" y="521" width="354" height="94" rx="6" fill="#F5F5F5"/>
<rect x="1351" y="531" width="109" height="10" fill="#D9D9D9"/>
<rect x="1664" y="531" width="15" height="10" fill="#D9D9D9"/>
<rect x="1335" y="643" width="354" height="50" rx="4" fill="#3A3A3A"/>
<rect x="1457.5" y="663" width="109" height="10" fill="#D9D9D9"/>
</g>
<rect width="336" height="276" transform="translate(0 913)" fill="white"/>
<rect x="25" y="938" width="128" height="16" fill="#D9D9D9"/>
<rect x="25" y="985.5" width="109" height="10" fill="#D9D9D9"/>
<rect x="25" y="999.5" width="286" height="75" rx="6" fill="#F3F3F3"/>
<rect x="41" y="1009.5" width="109" height="10" fill="#D9D9D9"/>
<rect x="26" y="1115" width="284" height="48" rx="3" fill="#3A3A3A" fill-opacity="0.1"/>
<rect x="26" y="1115" width="284" height="48" rx="3" stroke="#3A3A3A" stroke-width="2"/>
<rect x="113.5" y="1134" width="109" height="10" fill="#D9D9D9"/>
<path d="M371 933C371 921.954 379.954 913 391 913H753C764.046 913 773 921.954 773 933V1203H371V933Z" fill="#F3F3F3"/>
<circle cx="423" cy="1020" r="14" fill="#93A9BB" fill-opacity="0.25"/>
<circle cx="423" cy="1020" r="10" fill="#3A3A3A" fill-opacity="0.85"/>
<circle cx="423" cy="1147" r="14" fill="#93A9BB" fill-opacity="0.25"/>
<circle cx="423" cy="1147" r="10" fill="#3A3A3A" fill-opacity="0.85"/>
<rect x="448.218" y="1011" width="109" height="13" fill="#D9D9D9"/>
<rect x="409.218" y="934" width="109" height="14" fill="#D9D9D9"/>
<rect x="409" y="961" width="109" height="10" fill="#D9D9D9"/>
<rect x="448.218" y="1034" width="188" height="10" fill="#D9D9D9"/>
<rect x="448.218" y="1053" width="224" height="10" fill="#D9D9D9"/>
<rect x="448.218" y="1072" width="217" height="10" fill="#D9D9D9"/>
<rect x="448.218" y="1091" width="254" height="10" fill="#D9D9D9"/>
<rect x="448" y="1138" width="109" height="13" fill="#D9D9D9"/>
<line x1="424" y1="1034" x2="424" y2="1133" stroke="#3A3A3A" stroke-opacity="0.7" stroke-width="2"/>
<defs>
<clipPath id="clip0_6078_1451">
<rect width="402" height="874" fill="white"/>
</clipPath>
<clipPath id="clip1_6078_1451">
<rect width="402" height="874" fill="white" transform="translate(437)"/>
</clipPath>
<clipPath id="clip2_6078_1451">
<rect width="402" height="874" fill="white" transform="translate(874)"/>
</clipPath>
<clipPath id="clip3_6078_1451">
<rect width="402" height="874" fill="white" transform="translate(1311)"/>
</clipPath>
</defs>
</svg>
